<svg width="20" height="20" viewBox="0 0 20 20" fill="none" xmlns="http://www.w3.org/2000/svg">
<path d="M9.99992 0.833252C4.93992 0.833252 0.833252 4.93992 0.833252 9.99992C0.833252 15.0599 4.93992 19.1666 9.99992 19.1666C15.0599 19.1666 19.1666 15.0599 19.1666 9.99992C19.1666 4.93992 15.0599 0.833252 9.99992 0.833252ZM11.2924 15.5824V17.3333H8.84492V15.5641C7.27742 15.2341 5.94825 14.2258 5.84742 12.4474H7.64409C7.73575 13.4099 8.39575 14.1616 10.0733 14.1616C11.8699 14.1616 12.2733 13.2633 12.2733 12.7041C12.2733 11.9433 11.8699 11.2283 9.82575 10.7424C7.55242 10.1924 5.99409 9.25742 5.99409 7.37825C5.99409 5.80159 7.26825 4.77492 8.84492 4.43575V2.66659H11.2924V4.45409C12.9974 4.86659 13.8499 6.15909 13.9049 7.56159H12.1083C12.0624 6.54409 11.5216 5.84742 10.0733 5.84742C8.69825 5.84742 7.87325 6.47075 7.87325 7.35075C7.87325 8.12075 8.46909 8.62492 10.3208 9.10159C12.1724 9.57825 14.1524 10.3758 14.1524 12.6858C14.1433 14.3633 12.8874 15.2799 11.2924 15.5824Z" fill="white"/>
</svg>
