<svg width="18" height="18" viewBox="0 0 18 18" fill="none" xmlns="http://www.w3.org/2000/svg">
<path d="M13.125 9C13.125 7.3775 12.19 5.98417 10.8333 5.30583V7.33167L13.0792 9.5775C13.1067 9.39417 13.125 9.20167 13.125 9V9ZM15.4167 9C15.4167 9.86167 15.2333 10.6683 14.9217 11.42L16.3058 12.8042C16.9108 11.6675 17.25 10.375 17.25 9C17.25 5.07667 14.5092 1.795 10.8333 0.960833V2.84917C13.4825 3.6375 15.4167 6.09417 15.4167 9ZM1.91417 0.75L0.75 1.91417L5.08583 6.25H0.75V11.75H4.41667L9 16.3333V10.1642L12.8958 14.06C12.2817 14.5367 11.5942 14.9125 10.8333 15.1417V17.03C12.0983 16.7458 13.2442 16.1592 14.2158 15.3708L16.0858 17.25L17.25 16.0858L9 7.83583L1.91417 0.75ZM9 1.66667L7.08417 3.5825L9 5.49833V1.66667Z" fill="white"/>
</svg>
