<svg width="16" height="19" viewBox="0 0 16 19" fill="none" xmlns="http://www.w3.org/2000/svg">
<path d="M8.00008 0.833252C3.94841 0.833252 0.666748 1.29159 0.666748 4.49992V13.2083C0.666748 14.9774 2.10591 16.4166 3.87508 16.4166L2.50008 17.7916V18.2499H13.5001V17.7916L12.1251 16.4166C13.8942 16.4166 15.3334 14.9774 15.3334 13.2083V4.49992C15.3334 1.29159 12.0517 0.833252 8.00008 0.833252ZM3.87508 14.5833C3.11425 14.5833 2.50008 13.9691 2.50008 13.2083C2.50008 12.4474 3.11425 11.8333 3.87508 11.8333C4.63591 11.8333 5.25008 12.4474 5.25008 13.2083C5.25008 13.9691 4.63591 14.5833 3.87508 14.5833ZM7.08341 9.08325H2.50008V4.49992H7.08341V9.08325ZM12.1251 14.5833C11.3642 14.5833 10.7501 13.9691 10.7501 13.2083C10.7501 12.4474 11.3642 11.8333 12.1251 11.8333C12.8859 11.8333 13.5001 12.4474 13.5001 13.2083C13.5001 13.9691 12.8859 14.5833 12.1251 14.5833ZM13.5001 9.08325H8.91675V4.49992H13.5001V9.08325Z" fill="white"/>
</svg>
