<svg width="20" height="20" viewBox="0 0 20 20" fill="none" xmlns="http://www.w3.org/2000/svg">
<path d="M9.99992 0.833252C4.95825 0.833252 0.833252 4.95825 0.833252 9.99992C0.833252 15.0416 4.95825 19.1666 9.99992 19.1666C15.0416 19.1666 19.1666 15.0416 19.1666 9.99992C19.1666 4.95825 15.0416 0.833252 9.99992 0.833252ZM9.99992 17.3333C5.95742 17.3333 2.66659 14.0424 2.66659 9.99992C2.66659 5.95742 5.95742 2.66659 9.99992 2.66659C14.0424 2.66659 17.3333 5.95742 17.3333 9.99992C17.3333 14.0424 14.0424 17.3333 9.99992 17.3333ZM10.4583 5.41659H9.08325V10.9166L13.8499 13.8499L14.5833 12.6583L10.4583 10.1833V5.41659Z" fill="#323232"/>
</svg>
