<svg width="18" height="21" viewBox="0 0 18 21" fill="none" xmlns="http://www.w3.org/2000/svg">
<path d="M9 5.5C10.0175 5.5 10.8333 4.675 10.8333 3.66667C10.8333 3.31833 10.7417 2.9975 10.5675 2.7225L9 0L7.4325 2.7225C7.25833 2.9975 7.16667 3.31833 7.16667 3.66667C7.16667 4.675 7.99167 5.5 9 5.5ZM14.5 8.25H9.91667V6.41667H8.08333V8.25H3.5C1.97833 8.25 0.75 9.47833 0.75 11V19.25C0.75 19.7542 1.1625 20.1667 1.66667 20.1667H16.3333C16.8375 20.1667 17.25 19.7542 17.25 19.25V11C17.25 9.47833 16.0217 8.25 14.5 8.25ZM15.4167 18.3333H2.58333V15.5833C3.40833 15.5742 4.19667 15.2442 4.78333 14.6575L5.7825 13.6767L6.76333 14.6575C7.96417 15.8583 10.0542 15.8492 11.2458 14.6575L12.2358 13.6767L13.2167 14.6575C13.8033 15.2442 14.5917 15.5742 15.4167 15.5833V18.3333V18.3333ZM15.4167 14.2083C14.9492 14.1992 14.5092 14.025 14.1792 13.6858L12.2267 11.7333L10.265 13.6858C9.58667 14.3642 8.40417 14.3642 7.72583 13.6858L5.77333 11.7333L3.81167 13.6858C3.49083 14.0158 3.05083 14.1992 2.58333 14.2083V11C2.58333 10.4958 2.99583 10.0833 3.5 10.0833H14.5C15.0042 10.0833 15.4167 10.4958 15.4167 11V14.2083Z" fill="#323232"/>
</svg>
