<svg width="16" height="19" viewBox="0 0 16 19" fill="none" xmlns="http://www.w3.org/2000/svg">
<path d="M8.00008 0.833252C4.33341 0.833252 0.666748 1.29159 0.666748 4.49992V13.2083C0.666748 14.9774 2.10591 16.4166 3.87508 16.4166L2.50008 17.7916V18.2499H13.5001V17.7916L12.1251 16.4166C13.8942 16.4166 15.3334 14.9774 15.3334 13.2083V4.49992C15.3334 1.29159 12.0517 0.833252 8.00008 0.833252ZM13.1884 3.58325H2.89425C3.45341 3.10659 4.78258 2.66659 8.00008 2.66659C11.4009 2.66659 12.6934 3.08825 13.1884 3.58325ZM7.08341 5.41658V8.16658H2.50008V5.41658H7.08341ZM8.91675 5.41658H13.5001V8.16658H8.91675V5.41658ZM12.1251 14.5833H3.87508C3.11425 14.5833 2.50008 13.9691 2.50008 13.2083V9.99992H13.5001V13.2083C13.5001 13.9691 12.8859 14.5833 12.1251 14.5833Z" fill="#323232"/>
</svg>
