<svg width="20" height="20" viewBox="0 0 20 20" fill="none" xmlns="http://www.w3.org/2000/svg">
<path d="M9.99992 0.833252C4.93992 0.833252 0.833252 4.93992 0.833252 9.99992C0.833252 15.0599 4.93992 19.1666 9.99992 19.1666C15.0599 19.1666 19.1666 15.0599 19.1666 9.99992C19.1666 4.93992 15.0599 0.833252 9.99992 0.833252ZM9.99992 17.3333C5.95742 17.3333 2.66659 14.0424 2.66659 9.99992C2.66659 5.95742 5.95742 2.66659 9.99992 2.66659C14.0424 2.66659 17.3333 5.95742 17.3333 9.99992C17.3333 14.0424 14.0424 17.3333 9.99992 17.3333ZM10.2841 9.21159C8.66159 8.79909 8.13909 8.34992 8.13909 7.68075C8.13909 6.91075 8.86325 6.36992 10.0641 6.36992C11.3291 6.36992 11.8058 6.97492 11.8424 7.87325H13.4099C13.3641 6.64492 12.6124 5.51742 11.1274 5.15075V3.58325H8.99158V5.13242C7.60742 5.42575 6.49825 6.32409 6.49825 7.70825C6.49825 9.34909 7.86409 10.1741 9.85325 10.6508C11.6408 11.0724 11.9983 11.7049 11.9983 12.3649C11.9983 12.8508 11.6408 13.6391 10.0733 13.6391C8.60659 13.6391 8.02909 12.9791 7.94659 12.1358H6.36992C6.46159 13.6941 7.61659 14.5741 8.99158 14.8583V16.4166H11.1366V14.8858C12.5299 14.6199 13.6299 13.8224 13.6391 12.3466C13.6299 10.3299 11.8974 9.63325 10.2841 9.21159Z" fill="#323232"/>
</svg>
