<svg width="18" height="18" viewBox="0 0 18 18" fill="none" xmlns="http://www.w3.org/2000/svg">
<path d="M1.97829 0.685791L0.685791 1.97829L4.68246 5.97496L4.41662 6.24996H0.749958V11.75H4.41662L8.99996 16.3333V10.2925L12.8316 14.1241C12.2358 14.5733 11.5666 14.9308 10.8333 15.1416V17.03C12.0616 16.755 13.1891 16.1866 14.1425 15.4258L16.0216 17.305L17.3141 16.0125L1.97829 0.685791ZM7.16662 11.9058L5.17746 9.91662H2.58329V8.08329H5.17746L5.98412 7.27662L7.16662 8.45912V11.9058ZM15.4166 8.99996C15.4166 9.75162 15.2791 10.4758 15.0408 11.145L16.4433 12.5475C16.9566 11.475 17.25 10.2741 17.25 8.99996C17.25 5.07662 14.5091 1.79496 10.8333 0.960791V2.84912C13.4825 3.63746 15.4166 6.09412 15.4166 8.99996ZM8.99996 1.66662L7.27662 3.38996L8.99996 5.11329V1.66662ZM13.125 8.99996C13.125 7.37746 12.19 5.98412 10.8333 5.30579V6.94662L13.1066 9.21996C13.1158 9.14662 13.125 9.07329 13.125 8.99996Z" fill="#323232"/>
</svg>
