<svg width="131" height="131" viewBox="0 0 131 131" fill="none" xmlns="http://www.w3.org/2000/svg">
<g clip-path="url(#clip0)">
<rect width="131" height="131" fill="white"/>
<g style="mix-blend-mode:multiply" opacity="0.33">
<g style="mix-blend-mode:multiply" opacity="0.33">
<path d="M91.501 57.1315H40.8813C39.1943 57.1315 37.8267 58.4991 37.8267 60.1861V63.9996C37.8267 65.6867 39.1943 67.0543 40.8813 67.0543H91.501C93.188 67.0543 94.5556 65.6867 94.5556 63.9996V60.1861C94.5556 58.4991 93.188 57.1315 91.501 57.1315Z" fill="#4E4E4E"/>
<path d="M91.501 57.1315H40.8813C39.1943 57.1315 37.8267 58.4991 37.8267 60.1861V63.9996C37.8267 65.6867 39.1943 67.0543 40.8813 67.0543H91.501C93.188 67.0543 94.5556 65.6867 94.5556 63.9996V60.1861C94.5556 58.4991 93.188 57.1315 91.501 57.1315Z" stroke="black" stroke-width="0.218188" stroke-linecap="round" stroke-linejoin="round"/>
</g>
<g style="mix-blend-mode:multiply" opacity="0.33">
<path d="M91.501 57.1315H40.8813C39.1943 57.1315 37.8267 58.4991 37.8267 60.1861V63.9996C37.8267 65.6867 39.1943 67.0543 40.8813 67.0543H91.501C93.188 67.0543 94.5556 65.6867 94.5556 63.9996V60.1861C94.5556 58.4991 93.188 57.1315 91.501 57.1315Z" fill="#4E4E4E"/>
</g>
<g style="mix-blend-mode:multiply" opacity="0.17">
<path d="M40.8821 57.1315H91.5017C92.3119 57.1315 93.0888 57.4533 93.6617 58.0262C94.2345 58.599 94.5564 59.376 94.5564 60.1861V64.6455C94.5564 65.1402 94.3598 65.6146 94.01 65.9644C93.6602 66.3142 93.1858 66.5108 92.6911 66.5108H39.6929C39.1982 66.5108 38.7238 66.3142 38.374 65.9644C38.0242 65.6146 37.8276 65.1402 37.8276 64.6455V60.1861C37.8276 59.376 38.1495 58.599 38.7223 58.0262C39.2952 57.4533 40.0721 57.1315 40.8823 57.1315H40.8821Z" fill="#4E4E4E"/>
</g>
<g style="mix-blend-mode:multiply" opacity="0.33">
<path d="M91.501 57.1315H40.8813C39.1943 57.1315 37.8267 58.4991 37.8267 60.1861V63.9996C37.8267 65.6867 39.1943 67.0543 40.8813 67.0543H91.501C93.188 67.0543 94.5556 65.6867 94.5556 63.9996V60.1861C94.5556 58.4991 93.188 57.1315 91.501 57.1315Z" fill="#4E4E4E"/>
<path d="M91.501 57.1315H40.8813C39.1943 57.1315 37.8267 58.4991 37.8267 60.1861V63.9996C37.8267 65.6867 39.1943 67.0543 40.8813 67.0543H91.501C93.188 67.0543 94.5556 65.6867 94.5556 63.9996V60.1861C94.5556 58.4991 93.188 57.1315 91.501 57.1315Z" stroke="#46505C" stroke-width="0.872753" stroke-linecap="round" stroke-linejoin="round"/>
</g>
<g style="mix-blend-mode:multiply" opacity="0.33">
<path d="M90.6282 65.8732V58.2495H41.754V65.8732H90.6282Z" fill="#4E4E4E"/>
</g>
<g style="mix-blend-mode:multiply" opacity="0.33">
<path d="M90.6282 65.8732V58.2495H41.754V65.8732H90.6282Z" fill="#4E4E4E"/>
<path d="M90.6282 65.8732V58.2495H41.754V65.8732H90.6282Z" stroke="#46505C" stroke-width="0.218188" stroke-linecap="round" stroke-linejoin="round"/>
</g>
<g style="mix-blend-mode:multiply" opacity="0.33">
<path d="M91.5012 67.0543H40.8815C39.1945 67.0543 37.8269 68.4219 37.8269 70.1089V101.528C37.8269 103.215 39.1945 104.583 40.8815 104.583H91.5012C93.1882 104.583 94.5558 103.215 94.5558 101.528V70.1089C94.5558 68.4219 93.1882 67.0543 91.5012 67.0543Z" fill="#4E4E4E"/>
</g>
<g style="mix-blend-mode:multiply" opacity="0.33">
<path d="M93.6831 101.528V70.1089C93.6831 68.9039 92.7062 67.927 91.5012 67.927H40.8815C39.6765 67.927 38.6997 68.9039 38.6997 70.1089V101.528C38.6997 102.733 39.6765 103.71 40.8815 103.71H91.5012C92.7062 103.71 93.6831 102.733 93.6831 101.528Z" fill="#4E4E4E"/>
<path d="M93.6831 101.528V70.1089C93.6831 68.9039 92.7062 67.927 91.5012 67.927H40.8815C39.6765 67.927 38.6997 68.9039 38.6997 70.1089V101.528C38.6997 102.733 39.6765 103.71 40.8815 103.71H91.5012C92.7062 103.71 93.6831 102.733 93.6831 101.528Z" stroke="#E6F3FF" stroke-width="0.436376" stroke-miterlimit="10"/>
</g>
<g style="mix-blend-mode:multiply" opacity="0.33">
<path d="M62.6892 102.876H69.693C69.9245 102.876 70.1465 102.968 70.3101 103.131C70.4738 103.295 70.5658 103.517 70.5658 103.749V104.582H61.8164V103.749C61.8164 103.517 61.9084 103.295 62.072 103.131C62.2357 102.968 62.4577 102.876 62.6892 102.876Z" fill="#4E4E4E"/>
</g>
<g style="mix-blend-mode:multiply" opacity="0.33">
<path d="M91.5012 67.0543H40.8815C39.1945 67.0543 37.8269 68.4219 37.8269 70.1089V101.528C37.8269 103.215 39.1945 104.583 40.8815 104.583H91.5012C93.1882 104.583 94.5558 103.215 94.5558 101.528V70.1089C94.5558 68.4219 93.1882 67.0543 91.5012 67.0543Z" fill="#4E4E4E"/>
<path d="M91.5012 67.0543H40.8815C39.1945 67.0543 37.8269 68.4219 37.8269 70.1089V101.528C37.8269 103.215 39.1945 104.583 40.8815 104.583H91.5012C93.1882 104.583 94.5558 103.215 94.5558 101.528V70.1089C94.5558 68.4219 93.1882 67.0543 91.5012 67.0543Z" stroke="#46505C" stroke-width="0.872753" stroke-linecap="round" stroke-linejoin="round"/>
</g>
<g style="mix-blend-mode:multiply" opacity="0.33">
<path d="M90.6282 69.9824H41.7541C41.3925 69.9824 41.0995 70.2754 41.0995 70.6369V89.4011C41.0995 89.7626 41.3925 90.0557 41.7541 90.0557H90.6282C90.9897 90.0557 91.2828 89.7626 91.2828 89.4011V70.6369C91.2828 70.2754 90.9897 69.9824 90.6282 69.9824Z" fill="#4E4E4E"/>
</g>
<g style="mix-blend-mode:multiply" opacity="0.33">
<path d="M50.7183 85.1464H48.1C47.9795 85.1464 47.8818 85.2441 47.8818 85.3646V87.9829C47.8818 88.1034 47.9795 88.2011 48.1 88.2011H50.7183C50.8388 88.2011 50.9365 88.1034 50.9365 87.9829V85.3646C50.9365 85.2441 50.8388 85.1464 50.7183 85.1464Z" fill="#4E4E4E"/>
<path d="M50.7183 85.1464H48.1C47.9795 85.1464 47.8818 85.2441 47.8818 85.3646V87.9829C47.8818 88.1034 47.9795 88.2011 48.1 88.2011H50.7183C50.8388 88.2011 50.9365 88.1034 50.9365 87.9829V85.3646C50.9365 85.2441 50.8388 85.1464 50.7183 85.1464Z" stroke="#626C84" stroke-width="0.218188" stroke-linecap="round" stroke-linejoin="round"/>
</g>
<g style="mix-blend-mode:multiply" opacity="0.33">
<path d="M45.997 85.1464H43.3787C43.2582 85.1464 43.1605 85.2441 43.1605 85.3646V87.9829C43.1605 88.1034 43.2582 88.2011 43.3787 88.2011H45.997C46.1175 88.2011 46.2152 88.1034 46.2152 87.9829V85.3646C46.2152 85.2441 46.1175 85.1464 45.997 85.1464Z" fill="#4E4E4E"/>
<path d="M45.997 85.1464H43.3787C43.2582 85.1464 43.1605 85.2441 43.1605 85.3646V87.9829C43.1605 88.1034 43.2582 88.2011 43.3787 88.2011H45.997C46.1175 88.2011 46.2152 88.1034 46.2152 87.9829V85.3646C46.2152 85.2441 46.1175 85.1464 45.997 85.1464Z" stroke="#626C84" stroke-width="0.218188" stroke-linecap="round" stroke-linejoin="round"/>
</g>
<g style="mix-blend-mode:multiply" opacity="0.33">
<path d="M74.3245 85.1464H52.8212C52.7007 85.1464 52.603 85.2441 52.603 85.3646V87.9829C52.603 88.1034 52.7007 88.2011 52.8212 88.2011H74.3245C74.445 88.2011 74.5427 88.1034 74.5427 87.9829V85.3646C74.5427 85.2441 74.445 85.1464 74.3245 85.1464Z" fill="#4E4E4E"/>
<path d="M74.3245 85.1464H52.8212C52.7007 85.1464 52.603 85.2441 52.603 85.3646V87.9829C52.603 88.1034 52.7007 88.2011 52.8212 88.2011H74.3245C74.445 88.2011 74.5427 88.1034 74.5427 87.9829V85.3646C74.5427 85.2441 74.445 85.1464 74.3245 85.1464Z" stroke="#626C84" stroke-width="0.218188" stroke-linecap="round" stroke-linejoin="round"/>
</g>
<g style="mix-blend-mode:multiply" opacity="0.33">
<path d="M79.0459 85.1464H76.4277C76.3072 85.1464 76.2095 85.2441 76.2095 85.3646V87.9829C76.2095 88.1034 76.3072 88.2011 76.4277 88.2011H79.0459C79.1664 88.2011 79.2641 88.1034 79.2641 87.9829V85.3646C79.2641 85.2441 79.1664 85.1464 79.0459 85.1464Z" fill="#4E4E4E"/>
<path d="M79.0459 85.1464H76.4277C76.3072 85.1464 76.2095 85.2441 76.2095 85.3646V87.9829C76.2095 88.1034 76.3072 88.2011 76.4277 88.2011H79.0459C79.1664 88.2011 79.2641 88.1034 79.2641 87.9829V85.3646C79.2641 85.2441 79.1664 85.1464 79.0459 85.1464Z" stroke="#626C84" stroke-width="0.218188" stroke-linecap="round" stroke-linejoin="round"/>
</g>
<g style="mix-blend-mode:multiply" opacity="0.33">
<path d="M85.9492 86.8647H84.2037C84.0832 86.8647 83.9855 86.9624 83.9855 87.0829V87.9829C83.9855 88.1034 84.0832 88.2011 84.2037 88.2011H85.9492C86.0697 88.2011 86.1674 88.1034 86.1674 87.9829V87.0829C86.1674 86.9624 86.0697 86.8647 85.9492 86.8647Z" fill="#4E4E4E"/>
<path d="M85.9492 86.8647H84.2037C84.0832 86.8647 83.9855 86.9624 83.9855 87.0829V87.9829C83.9855 88.1034 84.0832 88.2011 84.2037 88.2011H85.9492C86.0697 88.2011 86.1674 88.1034 86.1674 87.9829V87.0829C86.1674 86.9624 86.0697 86.8647 85.9492 86.8647Z" stroke="#626C84" stroke-width="0.218188" stroke-linecap="round" stroke-linejoin="round"/>
</g>
<g style="mix-blend-mode:multiply" opacity="0.33">
<path d="M85.9492 85.1464H84.2037C84.0832 85.1464 83.9855 85.2441 83.9855 85.3646V86.2647C83.9855 86.3852 84.0832 86.4828 84.2037 86.4828H85.9492C86.0697 86.4828 86.1674 86.3852 86.1674 86.2647V85.3646C86.1674 85.2441 86.0697 85.1464 85.9492 85.1464Z" fill="#4E4E4E"/>
<path d="M85.9492 85.1464H84.2037C84.0832 85.1464 83.9855 85.2441 83.9855 85.3646V86.2647C83.9855 86.3852 84.0832 86.4828 84.2037 86.4828H85.9492C86.0697 86.4828 86.1674 86.3852 86.1674 86.2647V85.3646C86.1674 85.2441 86.0697 85.1464 85.9492 85.1464Z" stroke="#626C84" stroke-width="0.218188" stroke-linecap="round" stroke-linejoin="round"/>
</g>
<g style="mix-blend-mode:multiply" opacity="0.33">
<path d="M89.0039 86.8647H87.2583C87.1378 86.8647 87.0402 86.9624 87.0402 87.0829V87.9829C87.0402 88.1034 87.1378 88.2011 87.2583 88.2011H89.0039C89.1244 88.2011 89.222 88.1034 89.222 87.9829V87.0829C89.222 86.9624 89.1244 86.8647 89.0039 86.8647Z" fill="#4E4E4E"/>
<path d="M89.0039 86.8647H87.2583C87.1378 86.8647 87.0402 86.9624 87.0402 87.0829V87.9829C87.0402 88.1034 87.1378 88.2011 87.2583 88.2011H89.0039C89.1244 88.2011 89.222 88.1034 89.222 87.9829V87.0829C89.222 86.9624 89.1244 86.8647 89.0039 86.8647Z" stroke="#626C84" stroke-width="0.218188" stroke-linecap="round" stroke-linejoin="round"/>
</g>
<g style="mix-blend-mode:multiply" opacity="0.33">
<path d="M82.8945 86.8647H81.149C81.0285 86.8647 80.9308 86.9624 80.9308 87.0829V87.9829C80.9308 88.1034 81.0285 88.2011 81.149 88.2011H82.8945C83.015 88.2011 83.1127 88.1034 83.1127 87.9829V87.0829C83.1127 86.9624 83.015 86.8647 82.8945 86.8647Z" fill="#4E4E4E"/>
<path d="M82.8945 86.8647H81.149C81.0285 86.8647 80.9308 86.9624 80.9308 87.0829V87.9829C80.9308 88.1034 81.0285 88.2011 81.149 88.2011H82.8945C83.015 88.2011 83.1127 88.1034 83.1127 87.9829V87.0829C83.1127 86.9624 83.015 86.8647 82.8945 86.8647Z" stroke="#626C84" stroke-width="0.218188" stroke-linecap="round" stroke-linejoin="round"/>
</g>
<g style="mix-blend-mode:multiply" opacity="0.33">
<path d="M50.282 80.8001H43.3787C43.2582 80.8001 43.1605 80.8978 43.1605 81.0183V83.6366C43.1605 83.7571 43.2582 83.8548 43.3787 83.8548H50.282C50.4025 83.8548 50.5002 83.7571 50.5002 83.6366V81.0183C50.5002 80.8978 50.4025 80.8001 50.282 80.8001Z" fill="#4E4E4E"/>
<path d="M50.282 80.8001H43.3787C43.2582 80.8001 43.1605 80.8978 43.1605 81.0183V83.6366C43.1605 83.7571 43.2582 83.8548 43.3787 83.8548H50.282C50.4025 83.8548 50.5002 83.7571 50.5002 83.6366V81.0183C50.5002 80.8978 50.4025 80.8001 50.282 80.8001Z" stroke="#626C84" stroke-width="0.218188" stroke-linecap="round" stroke-linejoin="round"/>
</g>
<g style="mix-blend-mode:multiply" opacity="0.33">
<path d="M55.0426 80.8001H52.4244C52.3039 80.8001 52.2062 80.8978 52.2062 81.0183V83.6366C52.2062 83.7571 52.3039 83.8548 52.4244 83.8548H55.0426C55.1631 83.8548 55.2608 83.7571 55.2608 83.6366V81.0183C55.2608 80.8978 55.1631 80.8001 55.0426 80.8001Z" fill="#4E4E4E"/>
<path d="M55.0426 80.8001H52.4244C52.3039 80.8001 52.2062 80.8978 52.2062 81.0183V83.6366C52.2062 83.7571 52.3039 83.8548 52.4244 83.8548H55.0426C55.1631 83.8548 55.2608 83.7571 55.2608 83.6366V81.0183C55.2608 80.8978 55.1631 80.8001 55.0426 80.8001Z" stroke="#626C84" stroke-width="0.218188" stroke-linecap="round" stroke-linejoin="round"/>
</g>
<g style="mix-blend-mode:multiply" opacity="0.33">
<path d="M59.7639 80.8001H57.1457C57.0252 80.8001 56.9275 80.8978 56.9275 81.0183V83.6366C56.9275 83.7571 57.0252 83.8548 57.1457 83.8548H59.7639C59.8844 83.8548 59.9821 83.7571 59.9821 83.6366V81.0183C59.9821 80.8978 59.8844 80.8001 59.7639 80.8001Z" fill="#4E4E4E"/>
<path d="M59.7639 80.8001H57.1457C57.0252 80.8001 56.9275 80.8978 56.9275 81.0183V83.6366C56.9275 83.7571 57.0252 83.8548 57.1457 83.8548H59.7639C59.8844 83.8548 59.9821 83.7571 59.9821 83.6366V81.0183C59.9821 80.8978 59.8844 80.8001 59.7639 80.8001Z" stroke="#626C84" stroke-width="0.218188" stroke-linecap="round" stroke-linejoin="round"/>
</g>
<g style="mix-blend-mode:multiply" opacity="0.33">
<path d="M64.4851 80.8001H61.8669C61.7464 80.8001 61.6487 80.8978 61.6487 81.0183V83.6366C61.6487 83.7571 61.7464 83.8548 61.8669 83.8548H64.4851C64.6056 83.8548 64.7033 83.7571 64.7033 83.6366V81.0183C64.7033 80.8978 64.6056 80.8001 64.4851 80.8001Z" fill="#4E4E4E"/>
<path d="M64.4851 80.8001H61.8669C61.7464 80.8001 61.6487 80.8978 61.6487 81.0183V83.6366C61.6487 83.7571 61.7464 83.8548 61.8669 83.8548H64.4851C64.6056 83.8548 64.7033 83.7571 64.7033 83.6366V81.0183C64.7033 80.8978 64.6056 80.8001 64.4851 80.8001Z" stroke="#626C84" stroke-width="0.218188" stroke-linecap="round" stroke-linejoin="round"/>
</g>
<g style="mix-blend-mode:multiply" opacity="0.33">
<path d="M69.2064 80.8001H66.5882C66.4677 80.8001 66.37 80.8978 66.37 81.0183V83.6366C66.37 83.7571 66.4677 83.8548 66.5882 83.8548H69.2064C69.3269 83.8548 69.4246 83.7571 69.4246 83.6366V81.0183C69.4246 80.8978 69.3269 80.8001 69.2064 80.8001Z" fill="#4E4E4E"/>
<path d="M69.2064 80.8001H66.5882C66.4677 80.8001 66.37 80.8978 66.37 81.0183V83.6366C66.37 83.7571 66.4677 83.8548 66.5882 83.8548H69.2064C69.3269 83.8548 69.4246 83.7571 69.4246 83.6366V81.0183C69.4246 80.8978 69.3269 80.8001 69.2064 80.8001Z" stroke="#626C84" stroke-width="0.218188" stroke-linecap="round" stroke-linejoin="round"/>
</g>
<g style="mix-blend-mode:multiply" opacity="0.33">
<path d="M73.9276 80.8001H71.3094C71.1889 80.8001 71.0912 80.8978 71.0912 81.0183V83.6366C71.0912 83.7571 71.1889 83.8548 71.3094 83.8548H73.9276C74.0481 83.8548 74.1458 83.7571 74.1458 83.6366V81.0183C74.1458 80.8978 74.0481 80.8001 73.9276 80.8001Z" fill="#4E4E4E"/>
<path d="M73.9276 80.8001H71.3094C71.1889 80.8001 71.0912 80.8978 71.0912 81.0183V83.6366C71.0912 83.7571 71.1889 83.8548 71.3094 83.8548H73.9276C74.0481 83.8548 74.1458 83.7571 74.1458 83.6366V81.0183C74.1458 80.8978 74.0481 80.8001 73.9276 80.8001Z" stroke="#626C84" stroke-width="0.218188" stroke-linecap="round" stroke-linejoin="round"/>
</g>
<g style="mix-blend-mode:multiply" opacity="0.33">
<path d="M78.6491 80.8001H76.0308C75.9103 80.8001 75.8126 80.8978 75.8126 81.0183V83.6366C75.8126 83.7571 75.9103 83.8548 76.0308 83.8548H78.6491C78.7696 83.8548 78.8673 83.7571 78.8673 83.6366V81.0183C78.8673 80.8978 78.7696 80.8001 78.6491 80.8001Z" fill="#4E4E4E"/>
<path d="M78.6491 80.8001H76.0308C75.9103 80.8001 75.8126 80.8978 75.8126 81.0183V83.6366C75.8126 83.7571 75.9103 83.8548 76.0308 83.8548H78.6491C78.7696 83.8548 78.8673 83.7571 78.8673 83.6366V81.0183C78.8673 80.8978 78.7696 80.8001 78.6491 80.8001Z" stroke="#626C84" stroke-width="0.218188" stroke-linecap="round" stroke-linejoin="round"/>
</g>
<g style="mix-blend-mode:multiply" opacity="0.33">
<path d="M89.0038 80.8001H81.149C81.0285 80.8001 80.9308 80.8978 80.9308 81.0183V83.6366C80.9308 83.7571 81.0285 83.8548 81.149 83.8548H89.0038C89.1243 83.8548 89.2219 83.7571 89.2219 83.6366V81.0183C89.2219 80.8978 89.1243 80.8001 89.0038 80.8001Z" fill="#4E4E4E"/>
<path d="M89.0038 80.8001H81.149C81.0285 80.8001 80.9308 80.8978 80.9308 81.0183V83.6366C80.9308 83.7571 81.0285 83.8548 81.149 83.8548H89.0038C89.1243 83.8548 89.2219 83.7571 89.2219 83.6366V81.0183C89.2219 80.8978 89.1243 80.8001 89.0038 80.8001Z" stroke="#626C84" stroke-width="0.218188" stroke-linecap="round" stroke-linejoin="round"/>
</g>
<g style="mix-blend-mode:multiply" opacity="0.33">
<path d="M53.3366 76.3317H50.7183C50.5978 76.3317 50.5001 76.4293 50.5001 76.5498V79.1681C50.5001 79.2886 50.5978 79.3863 50.7183 79.3863H53.3366C53.4571 79.3863 53.5548 79.2886 53.5548 79.1681V76.5498C53.5548 76.4293 53.4571 76.3317 53.3366 76.3317Z" fill="#4E4E4E"/>
<path d="M53.3366 76.3317H50.7183C50.5978 76.3317 50.5001 76.4293 50.5001 76.5498V79.1681C50.5001 79.2886 50.5978 79.3863 50.7183 79.3863H53.3366C53.4571 79.3863 53.5548 79.2886 53.5548 79.1681V76.5498C53.5548 76.4293 53.4571 76.3317 53.3366 76.3317Z" stroke="#626C84" stroke-width="0.218188" stroke-linecap="round" stroke-linejoin="round"/>
</g>
<g style="mix-blend-mode:multiply" opacity="0.33">
<path d="M48.6152 76.3317H43.3787C43.2582 76.3317 43.1605 76.4293 43.1605 76.5498V79.1681C43.1605 79.2886 43.2582 79.3863 43.3787 79.3863H48.6152C48.7357 79.3863 48.8334 79.2886 48.8334 79.1681V76.5498C48.8334 76.4293 48.7357 76.3317 48.6152 76.3317Z" fill="#4E4E4E"/>
<path d="M48.6152 76.3317H43.3787C43.2582 76.3317 43.1605 76.4293 43.1605 76.5498V79.1681C43.1605 79.2886 43.2582 79.3863 43.3787 79.3863H48.6152C48.7357 79.3863 48.8334 79.2886 48.8334 79.1681V76.5498C48.8334 76.4293 48.7357 76.3317 48.6152 76.3317Z" stroke="#626C84" stroke-width="0.218188" stroke-linecap="round" stroke-linejoin="round"/>
</g>
<g style="mix-blend-mode:multiply" opacity="0.33">
<path d="M58.0578 76.3317H55.4395C55.319 76.3317 55.2213 76.4293 55.2213 76.5498V79.1681C55.2213 79.2886 55.319 79.3863 55.4395 79.3863H58.0578C58.1783 79.3863 58.2759 79.2886 58.2759 79.1681V76.5498C58.2759 76.4293 58.1783 76.3317 58.0578 76.3317Z" fill="#4E4E4E"/>
<path d="M58.0578 76.3317H55.4395C55.319 76.3317 55.2213 76.4293 55.2213 76.5498V79.1681C55.2213 79.2886 55.319 79.3863 55.4395 79.3863H58.0578C58.1783 79.3863 58.2759 79.2886 58.2759 79.1681V76.5498C58.2759 76.4293 58.1783 76.3317 58.0578 76.3317Z" stroke="#626C84" stroke-width="0.218188" stroke-linecap="round" stroke-linejoin="round"/>
</g>
<g style="mix-blend-mode:multiply" opacity="0.33">
<path d="M62.7791 76.3317H60.1608C60.0403 76.3317 59.9426 76.4293 59.9426 76.5498V79.1681C59.9426 79.2886 60.0403 79.3863 60.1608 79.3863H62.7791C62.8996 79.3863 62.9973 79.2886 62.9973 79.1681V76.5498C62.9973 76.4293 62.8996 76.3317 62.7791 76.3317Z" fill="#4E4E4E"/>
<path d="M62.7791 76.3317H60.1608C60.0403 76.3317 59.9426 76.4293 59.9426 76.5498V79.1681C59.9426 79.2886 60.0403 79.3863 60.1608 79.3863H62.7791C62.8996 79.3863 62.9973 79.2886 62.9973 79.1681V76.5498C62.9973 76.4293 62.8996 76.3317 62.7791 76.3317Z" stroke="#626C84" stroke-width="0.218188" stroke-linecap="round" stroke-linejoin="round"/>
</g>
<g style="mix-blend-mode:multiply" opacity="0.33">
<path d="M67.5003 76.3317H64.882C64.7615 76.3317 64.6638 76.4293 64.6638 76.5498V79.1681C64.6638 79.2886 64.7615 79.3863 64.882 79.3863H67.5003C67.6208 79.3863 67.7185 79.2886 67.7185 79.1681V76.5498C67.7185 76.4293 67.6208 76.3317 67.5003 76.3317Z" fill="#4E4E4E"/>
<path d="M67.5003 76.3317H64.882C64.7615 76.3317 64.6638 76.4293 64.6638 76.5498V79.1681C64.6638 79.2886 64.7615 79.3863 64.882 79.3863H67.5003C67.6208 79.3863 67.7185 79.2886 67.7185 79.1681V76.5498C67.7185 76.4293 67.6208 76.3317 67.5003 76.3317Z" stroke="#626C84" stroke-width="0.218188" stroke-linecap="round" stroke-linejoin="round"/>
</g>
<g style="mix-blend-mode:multiply" opacity="0.33">
<path d="M72.2216 76.3317H69.6033C69.4828 76.3317 69.3851 76.4293 69.3851 76.5498V79.1681C69.3851 79.2886 69.4828 79.3863 69.6033 79.3863H72.2216C72.3421 79.3863 72.4398 79.2886 72.4398 79.1681V76.5498C72.4398 76.4293 72.3421 76.3317 72.2216 76.3317Z" fill="#4E4E4E"/>
<path d="M72.2216 76.3317H69.6033C69.4828 76.3317 69.3851 76.4293 69.3851 76.5498V79.1681C69.3851 79.2886 69.4828 79.3863 69.6033 79.3863H72.2216C72.3421 79.3863 72.4398 79.2886 72.4398 79.1681V76.5498C72.4398 76.4293 72.3421 76.3317 72.2216 76.3317Z" stroke="#626C84" stroke-width="0.218188" stroke-linecap="round" stroke-linejoin="round"/>
</g>
<g style="mix-blend-mode:multiply" opacity="0.33">
<path d="M76.943 76.3317H74.3248C74.2043 76.3317 74.1066 76.4293 74.1066 76.5498V79.1681C74.1066 79.2886 74.2043 79.3863 74.3248 79.3863H76.943C77.0635 79.3863 77.1612 79.2886 77.1612 79.1681V76.5498C77.1612 76.4293 77.0635 76.3317 76.943 76.3317Z" fill="#4E4E4E"/>
<path d="M76.943 76.3317H74.3248C74.2043 76.3317 74.1066 76.4293 74.1066 76.5498V79.1681C74.1066 79.2886 74.2043 79.3863 74.3248 79.3863H76.943C77.0635 79.3863 77.1612 79.2886 77.1612 79.1681V76.5498C77.1612 76.4293 77.0635 76.3317 76.943 76.3317Z" stroke="#626C84" stroke-width="0.218188" stroke-linecap="round" stroke-linejoin="round"/>
</g>
<g style="mix-blend-mode:multiply" opacity="0.33">
<path d="M81.6642 76.3317H79.0459C78.9254 76.3317 78.8278 76.4293 78.8278 76.5498V79.1681C78.8278 79.2886 78.9254 79.3863 79.0459 79.3863H81.6642C81.7847 79.3863 81.8824 79.2886 81.8824 79.1681V76.5498C81.8824 76.4293 81.7847 76.3317 81.6642 76.3317Z" fill="#4E4E4E"/>
<path d="M81.6642 76.3317H79.0459C78.9254 76.3317 78.8278 76.4293 78.8278 76.5498V79.1681C78.8278 79.2886 78.9254 79.3863 79.0459 79.3863H81.6642C81.7847 79.3863 81.8824 79.2886 81.8824 79.1681V76.5498C81.8824 76.4293 81.7847 76.3317 81.6642 76.3317Z" stroke="#626C84" stroke-width="0.218188" stroke-linecap="round" stroke-linejoin="round"/>
</g>
<g style="mix-blend-mode:multiply" opacity="0.33">
<path d="M89.0038 76.3317H83.7673C83.6468 76.3317 83.5491 76.4293 83.5491 76.5498V79.1681C83.5491 79.2886 83.6468 79.3863 83.7673 79.3863H89.0038C89.1243 79.3863 89.222 79.2886 89.222 79.1681V76.5498C89.222 76.4293 89.1243 76.3317 89.0038 76.3317Z" fill="#4E4E4E"/>
<path d="M89.0038 76.3317H83.7673C83.6468 76.3317 83.5491 76.4293 83.5491 76.5498V79.1681C83.5491 79.2886 83.6468 79.3863 83.7673 79.3863H89.0038C89.1243 79.3863 89.222 79.2886 89.222 79.1681V76.5498C89.222 76.4293 89.1243 76.3317 89.0038 76.3317Z" stroke="#626C84" stroke-width="0.218188" stroke-linecap="round" stroke-linejoin="round"/>
</g>
<g style="mix-blend-mode:multiply" opacity="0.33">
<path d="M50.7755 72.0551H48.1573C48.0368 72.0551 47.9391 72.1528 47.9391 72.2733V74.8916C47.9391 75.0121 48.0368 75.1098 48.1573 75.1098H50.7755C50.896 75.1098 50.9937 75.0121 50.9937 74.8916V72.2733C50.9937 72.1528 50.896 72.0551 50.7755 72.0551Z" fill="#4E4E4E"/>
<path d="M50.7755 72.0551H48.1573C48.0368 72.0551 47.9391 72.1528 47.9391 72.2733V74.8916C47.9391 75.0121 48.0368 75.1098 48.1573 75.1098H50.7755C50.896 75.1098 50.9937 75.0121 50.9937 74.8916V72.2733C50.9937 72.1528 50.896 72.0551 50.7755 72.0551Z" stroke="#626C84" stroke-width="0.218188" stroke-linecap="round" stroke-linejoin="round"/>
</g>
<g style="mix-blend-mode:multiply" opacity="0.33">
<path d="M45.997 72.0551H43.3787C43.2582 72.0551 43.1605 72.1528 43.1605 72.2733V74.8916C43.1605 75.0121 43.2582 75.1098 43.3787 75.1098H45.997C46.1175 75.1098 46.2152 75.0121 46.2152 74.8916V72.2733C46.2152 72.1528 46.1175 72.0551 45.997 72.0551Z" fill="#4E4E4E"/>
<path d="M45.997 72.0551H43.3787C43.2582 72.0551 43.1605 72.1528 43.1605 72.2733V74.8916C43.1605 75.0121 43.2582 75.1098 43.3787 75.1098H45.997C46.1175 75.1098 46.2152 75.0121 46.2152 74.8916V72.2733C46.2152 72.1528 46.1175 72.0551 45.997 72.0551Z" stroke="#626C84" stroke-width="0.218188" stroke-linecap="round" stroke-linejoin="round"/>
</g>
<g style="mix-blend-mode:multiply" opacity="0.33">
<path d="M55.554 72.0551H52.9357C52.8152 72.0551 52.7175 72.1528 52.7175 72.2733V74.8916C52.7175 75.0121 52.8152 75.1098 52.9357 75.1098H55.554C55.6745 75.1098 55.7722 75.0121 55.7722 74.8916V72.2733C55.7722 72.1528 55.6745 72.0551 55.554 72.0551Z" fill="#4E4E4E"/>
<path d="M55.554 72.0551H52.9357C52.8152 72.0551 52.7175 72.1528 52.7175 72.2733V74.8916C52.7175 75.0121 52.8152 75.1098 52.9357 75.1098H55.554C55.6745 75.1098 55.7722 75.0121 55.7722 74.8916V72.2733C55.7722 72.1528 55.6745 72.0551 55.554 72.0551Z" stroke="#626C84" stroke-width="0.218188" stroke-linecap="round" stroke-linejoin="round"/>
</g>
<g style="mix-blend-mode:multiply" opacity="0.33">
<path d="M60.3325 72.0551H57.7143C57.5938 72.0551 57.4961 72.1528 57.4961 72.2733V74.8916C57.4961 75.0121 57.5938 75.1098 57.7143 75.1098H60.3325C60.453 75.1098 60.5507 75.0121 60.5507 74.8916V72.2733C60.5507 72.1528 60.453 72.0551 60.3325 72.0551Z" fill="#4E4E4E"/>
<path d="M60.3325 72.0551H57.7143C57.5938 72.0551 57.4961 72.1528 57.4961 72.2733V74.8916C57.4961 75.0121 57.5938 75.1098 57.7143 75.1098H60.3325C60.453 75.1098 60.5507 75.0121 60.5507 74.8916V72.2733C60.5507 72.1528 60.453 72.0551 60.3325 72.0551Z" stroke="#626C84" stroke-width="0.218188" stroke-linecap="round" stroke-linejoin="round"/>
</g>
<g style="mix-blend-mode:multiply" opacity="0.33">
<path d="M65.1111 72.0551H62.4928C62.3723 72.0551 62.2747 72.1528 62.2747 72.2733V74.8916C62.2747 75.0121 62.3723 75.1098 62.4928 75.1098H65.1111C65.2316 75.1098 65.3293 75.0121 65.3293 74.8916V72.2733C65.3293 72.1528 65.2316 72.0551 65.1111 72.0551Z" fill="#4E4E4E"/>
<path d="M65.1111 72.0551H62.4928C62.3723 72.0551 62.2747 72.1528 62.2747 72.2733V74.8916C62.2747 75.0121 62.3723 75.1098 62.4928 75.1098H65.1111C65.2316 75.1098 65.3293 75.0121 65.3293 74.8916V72.2733C65.3293 72.1528 65.2316 72.0551 65.1111 72.0551Z" stroke="#626C84" stroke-width="0.218188" stroke-linecap="round" stroke-linejoin="round"/>
</g>
<g style="mix-blend-mode:multiply" opacity="0.33">
<path d="M69.8897 72.0551H67.2714C67.1509 72.0551 67.0532 72.1528 67.0532 72.2733V74.8916C67.0532 75.0121 67.1509 75.1098 67.2714 75.1098H69.8897C70.0102 75.1098 70.1079 75.0121 70.1079 74.8916V72.2733C70.1079 72.1528 70.0102 72.0551 69.8897 72.0551Z" fill="#4E4E4E"/>
<path d="M69.8897 72.0551H67.2714C67.1509 72.0551 67.0532 72.1528 67.0532 72.2733V74.8916C67.0532 75.0121 67.1509 75.1098 67.2714 75.1098H69.8897C70.0102 75.1098 70.1079 75.0121 70.1079 74.8916V72.2733C70.1079 72.1528 70.0102 72.0551 69.8897 72.0551Z" stroke="#626C84" stroke-width="0.218188" stroke-linecap="round" stroke-linejoin="round"/>
</g>
<g style="mix-blend-mode:multiply" opacity="0.33">
<path d="M74.6682 72.0551H72.05C71.9295 72.0551 71.8318 72.1528 71.8318 72.2733V74.8916C71.8318 75.0121 71.9295 75.1098 72.05 75.1098H74.6682C74.7887 75.1098 74.8864 75.0121 74.8864 74.8916V72.2733C74.8864 72.1528 74.7887 72.0551 74.6682 72.0551Z" fill="#4E4E4E"/>
<path d="M74.6682 72.0551H72.05C71.9295 72.0551 71.8318 72.1528 71.8318 72.2733V74.8916C71.8318 75.0121 71.9295 75.1098 72.05 75.1098H74.6682C74.7887 75.1098 74.8864 75.0121 74.8864 74.8916V72.2733C74.8864 72.1528 74.7887 72.0551 74.6682 72.0551Z" stroke="#626C84" stroke-width="0.218188" stroke-linecap="round" stroke-linejoin="round"/>
</g>
<g style="mix-blend-mode:multiply" opacity="0.33">
<path d="M79.4467 72.0551H76.8284C76.7079 72.0551 76.6102 72.1528 76.6102 72.2733V74.8916C76.6102 75.0121 76.7079 75.1098 76.8284 75.1098H79.4467C79.5672 75.1098 79.6649 75.0121 79.6649 74.8916V72.2733C79.6649 72.1528 79.5672 72.0551 79.4467 72.0551Z" fill="#4E4E4E"/>
<path d="M79.4467 72.0551H76.8284C76.7079 72.0551 76.6102 72.1528 76.6102 72.2733V74.8916C76.6102 75.0121 76.7079 75.1098 76.8284 75.1098H79.4467C79.5672 75.1098 79.6649 75.0121 79.6649 74.8916V72.2733C79.6649 72.1528 79.5672 72.0551 79.4467 72.0551Z" stroke="#626C84" stroke-width="0.218188" stroke-linecap="round" stroke-linejoin="round"/>
</g>
<g style="mix-blend-mode:multiply" opacity="0.33">
<path d="M84.2252 72.0551H81.607C81.4865 72.0551 81.3888 72.1528 81.3888 72.2733V74.8916C81.3888 75.0121 81.4865 75.1098 81.607 75.1098H84.2252C84.3457 75.1098 84.4434 75.0121 84.4434 74.8916V72.2733C84.4434 72.1528 84.3457 72.0551 84.2252 72.0551Z" fill="#4E4E4E"/>
<path d="M84.2252 72.0551H81.607C81.4865 72.0551 81.3888 72.1528 81.3888 72.2733V74.8916C81.3888 75.0121 81.4865 75.1098 81.607 75.1098H84.2252C84.3457 75.1098 84.4434 75.0121 84.4434 74.8916V72.2733C84.4434 72.1528 84.3457 72.0551 84.2252 72.0551Z" stroke="#626C84" stroke-width="0.218188" stroke-linecap="round" stroke-linejoin="round"/>
</g>
<g style="mix-blend-mode:multiply" opacity="0.33">
<path d="M89.0038 72.0551H86.3855C86.265 72.0551 86.1674 72.1528 86.1674 72.2733V74.8916C86.1674 75.0121 86.265 75.1098 86.3855 75.1098H89.0038C89.1243 75.1098 89.222 75.0121 89.222 74.8916V72.2733C89.222 72.1528 89.1243 72.0551 89.0038 72.0551Z" fill="#4E4E4E"/>
<path d="M89.0038 72.0551H86.3855C86.265 72.0551 86.1674 72.1528 86.1674 72.2733V74.8916C86.1674 75.0121 86.265 75.1098 86.3855 75.1098H89.0038C89.1243 75.1098 89.222 75.0121 89.222 74.8916V72.2733C89.222 72.1528 89.1243 72.0551 89.0038 72.0551Z" stroke="#626C84" stroke-width="0.218188" stroke-linecap="round" stroke-linejoin="round"/>
</g>
<g style="mix-blend-mode:multiply" opacity="0.33">
<path d="M50.7183 85.1464H48.1C47.9795 85.1464 47.8818 85.2441 47.8818 85.3646V87.9829C47.8818 88.1034 47.9795 88.2011 48.1 88.2011H50.7183C50.8388 88.2011 50.9365 88.1034 50.9365 87.9829V85.3646C50.9365 85.2441 50.8388 85.1464 50.7183 85.1464Z" fill="#4E4E4E"/>
</g>
<g style="mix-blend-mode:multiply" opacity="0.33">
<path d="M45.997 85.1464H43.3787C43.2582 85.1464 43.1605 85.2441 43.1605 85.3646V87.9829C43.1605 88.1034 43.2582 88.2011 43.3787 88.2011H45.997C46.1175 88.2011 46.2152 88.1034 46.2152 87.9829V85.3646C46.2152 85.2441 46.1175 85.1464 45.997 85.1464Z" fill="#4E4E4E"/>
</g>
<g style="mix-blend-mode:multiply" opacity="0.33">
<path d="M74.3245 85.1464H52.8212C52.7007 85.1464 52.603 85.2441 52.603 85.3646V87.9829C52.603 88.1034 52.7007 88.2011 52.8212 88.2011H74.3245C74.445 88.2011 74.5427 88.1034 74.5427 87.9829V85.3646C74.5427 85.2441 74.445 85.1464 74.3245 85.1464Z" fill="#4E4E4E"/>
</g>
<g style="mix-blend-mode:multiply" opacity="0.33">
<path d="M79.0459 85.1464H76.4277C76.3072 85.1464 76.2095 85.2441 76.2095 85.3646V87.9829C76.2095 88.1034 76.3072 88.2011 76.4277 88.2011H79.0459C79.1664 88.2011 79.2641 88.1034 79.2641 87.9829V85.3646C79.2641 85.2441 79.1664 85.1464 79.0459 85.1464Z" fill="#4E4E4E"/>
</g>
<g style="mix-blend-mode:multiply" opacity="0.33">
<path d="M85.9492 86.8647H84.2037C84.0832 86.8647 83.9855 86.9624 83.9855 87.0829V87.9829C83.9855 88.1034 84.0832 88.2011 84.2037 88.2011H85.9492C86.0697 88.2011 86.1674 88.1034 86.1674 87.9829V87.0829C86.1674 86.9624 86.0697 86.8647 85.9492 86.8647Z" fill="#4E4E4E"/>
</g>
<g style="mix-blend-mode:multiply" opacity="0.33">
<path d="M85.9492 85.1464H84.2037C84.0832 85.1464 83.9855 85.2441 83.9855 85.3646V86.2647C83.9855 86.3852 84.0832 86.4828 84.2037 86.4828H85.9492C86.0697 86.4828 86.1674 86.3852 86.1674 86.2647V85.3646C86.1674 85.2441 86.0697 85.1464 85.9492 85.1464Z" fill="#4E4E4E"/>
</g>
<g style="mix-blend-mode:multiply" opacity="0.33">
<path d="M89.0039 86.8647H87.2583C87.1378 86.8647 87.0402 86.9624 87.0402 87.0829V87.9829C87.0402 88.1034 87.1378 88.2011 87.2583 88.2011H89.0039C89.1244 88.2011 89.222 88.1034 89.222 87.9829V87.0829C89.222 86.9624 89.1244 86.8647 89.0039 86.8647Z" fill="#4E4E4E"/>
</g>
<g style="mix-blend-mode:multiply" opacity="0.33">
<path d="M82.8945 86.8647H81.149C81.0285 86.8647 80.9308 86.9624 80.9308 87.0829V87.9829C80.9308 88.1034 81.0285 88.2011 81.149 88.2011H82.8945C83.015 88.2011 83.1127 88.1034 83.1127 87.9829V87.0829C83.1127 86.9624 83.015 86.8647 82.8945 86.8647Z" fill="#4E4E4E"/>
</g>
<g style="mix-blend-mode:multiply" opacity="0.33">
<path d="M50.282 80.8001H43.3787C43.2582 80.8001 43.1605 80.8978 43.1605 81.0183V83.6366C43.1605 83.7571 43.2582 83.8548 43.3787 83.8548H50.282C50.4025 83.8548 50.5002 83.7571 50.5002 83.6366V81.0183C50.5002 80.8978 50.4025 80.8001 50.282 80.8001Z" fill="#4E4E4E"/>
</g>
<g style="mix-blend-mode:multiply" opacity="0.33">
<path d="M55.0426 80.8001H52.4244C52.3039 80.8001 52.2062 80.8978 52.2062 81.0183V83.6366C52.2062 83.7571 52.3039 83.8548 52.4244 83.8548H55.0426C55.1631 83.8548 55.2608 83.7571 55.2608 83.6366V81.0183C55.2608 80.8978 55.1631 80.8001 55.0426 80.8001Z" fill="#4E4E4E"/>
</g>
<g style="mix-blend-mode:multiply" opacity="0.33">
<path d="M59.7639 80.8001H57.1457C57.0252 80.8001 56.9275 80.8978 56.9275 81.0183V83.6366C56.9275 83.7571 57.0252 83.8548 57.1457 83.8548H59.7639C59.8844 83.8548 59.9821 83.7571 59.9821 83.6366V81.0183C59.9821 80.8978 59.8844 80.8001 59.7639 80.8001Z" fill="#4E4E4E"/>
</g>
<g style="mix-blend-mode:multiply" opacity="0.33">
<path d="M64.4851 80.8001H61.8669C61.7464 80.8001 61.6487 80.8978 61.6487 81.0183V83.6366C61.6487 83.7571 61.7464 83.8548 61.8669 83.8548H64.4851C64.6056 83.8548 64.7033 83.7571 64.7033 83.6366V81.0183C64.7033 80.8978 64.6056 80.8001 64.4851 80.8001Z" fill="#4E4E4E"/>
</g>
<g style="mix-blend-mode:multiply" opacity="0.33">
<path d="M69.2064 80.8001H66.5882C66.4677 80.8001 66.37 80.8978 66.37 81.0183V83.6366C66.37 83.7571 66.4677 83.8548 66.5882 83.8548H69.2064C69.3269 83.8548 69.4246 83.7571 69.4246 83.6366V81.0183C69.4246 80.8978 69.3269 80.8001 69.2064 80.8001Z" fill="#4E4E4E"/>
</g>
<g style="mix-blend-mode:multiply" opacity="0.33">
<path d="M73.9276 80.8001H71.3094C71.1889 80.8001 71.0912 80.8978 71.0912 81.0183V83.6366C71.0912 83.7571 71.1889 83.8548 71.3094 83.8548H73.9276C74.0481 83.8548 74.1458 83.7571 74.1458 83.6366V81.0183C74.1458 80.8978 74.0481 80.8001 73.9276 80.8001Z" fill="#4E4E4E"/>
</g>
<g style="mix-blend-mode:multiply" opacity="0.33">
<path d="M78.6491 80.8001H76.0308C75.9103 80.8001 75.8126 80.8978 75.8126 81.0183V83.6366C75.8126 83.7571 75.9103 83.8548 76.0308 83.8548H78.6491C78.7696 83.8548 78.8673 83.7571 78.8673 83.6366V81.0183C78.8673 80.8978 78.7696 80.8001 78.6491 80.8001Z" fill="#4E4E4E"/>
</g>
<g style="mix-blend-mode:multiply" opacity="0.33">
<path d="M89.0038 80.8001H81.149C81.0285 80.8001 80.9308 80.8978 80.9308 81.0183V83.6366C80.9308 83.7571 81.0285 83.8548 81.149 83.8548H89.0038C89.1243 83.8548 89.2219 83.7571 89.2219 83.6366V81.0183C89.2219 80.8978 89.1243 80.8001 89.0038 80.8001Z" fill="#4E4E4E"/>
</g>
<g style="mix-blend-mode:multiply" opacity="0.33">
<path d="M53.3366 76.3317H50.7183C50.5978 76.3317 50.5001 76.4293 50.5001 76.5498V79.1681C50.5001 79.2886 50.5978 79.3863 50.7183 79.3863H53.3366C53.4571 79.3863 53.5548 79.2886 53.5548 79.1681V76.5498C53.5548 76.4293 53.4571 76.3317 53.3366 76.3317Z" fill="#4E4E4E"/>
</g>
<g style="mix-blend-mode:multiply" opacity="0.33">
<path d="M48.6152 76.3317H43.3787C43.2582 76.3317 43.1605 76.4293 43.1605 76.5498V79.1681C43.1605 79.2886 43.2582 79.3863 43.3787 79.3863H48.6152C48.7357 79.3863 48.8334 79.2886 48.8334 79.1681V76.5498C48.8334 76.4293 48.7357 76.3317 48.6152 76.3317Z" fill="#4E4E4E"/>
</g>
<g style="mix-blend-mode:multiply" opacity="0.33">
<path d="M58.0578 76.3317H55.4395C55.319 76.3317 55.2213 76.4293 55.2213 76.5498V79.1681C55.2213 79.2886 55.319 79.3863 55.4395 79.3863H58.0578C58.1783 79.3863 58.2759 79.2886 58.2759 79.1681V76.5498C58.2759 76.4293 58.1783 76.3317 58.0578 76.3317Z" fill="#4E4E4E"/>
</g>
<g style="mix-blend-mode:multiply" opacity="0.33">
<path d="M62.7791 76.3317H60.1608C60.0403 76.3317 59.9426 76.4293 59.9426 76.5498V79.1681C59.9426 79.2886 60.0403 79.3863 60.1608 79.3863H62.7791C62.8996 79.3863 62.9973 79.2886 62.9973 79.1681V76.5498C62.9973 76.4293 62.8996 76.3317 62.7791 76.3317Z" fill="#4E4E4E"/>
</g>
<g style="mix-blend-mode:multiply" opacity="0.33">
<path d="M67.5003 76.3317H64.882C64.7615 76.3317 64.6638 76.4293 64.6638 76.5498V79.1681C64.6638 79.2886 64.7615 79.3863 64.882 79.3863H67.5003C67.6208 79.3863 67.7185 79.2886 67.7185 79.1681V76.5498C67.7185 76.4293 67.6208 76.3317 67.5003 76.3317Z" fill="#4E4E4E"/>
</g>
<g style="mix-blend-mode:multiply" opacity="0.33">
<path d="M72.2216 76.3317H69.6033C69.4828 76.3317 69.3851 76.4293 69.3851 76.5498V79.1681C69.3851 79.2886 69.4828 79.3863 69.6033 79.3863H72.2216C72.3421 79.3863 72.4398 79.2886 72.4398 79.1681V76.5498C72.4398 76.4293 72.3421 76.3317 72.2216 76.3317Z" fill="#4E4E4E"/>
</g>
<g style="mix-blend-mode:multiply" opacity="0.33">
<path d="M76.943 76.3317H74.3248C74.2043 76.3317 74.1066 76.4293 74.1066 76.5498V79.1681C74.1066 79.2886 74.2043 79.3863 74.3248 79.3863H76.943C77.0635 79.3863 77.1612 79.2886 77.1612 79.1681V76.5498C77.1612 76.4293 77.0635 76.3317 76.943 76.3317Z" fill="#4E4E4E"/>
</g>
<g style="mix-blend-mode:multiply" opacity="0.33">
<path d="M81.6642 76.3317H79.0459C78.9254 76.3317 78.8278 76.4293 78.8278 76.5498V79.1681C78.8278 79.2886 78.9254 79.3863 79.0459 79.3863H81.6642C81.7847 79.3863 81.8824 79.2886 81.8824 79.1681V76.5498C81.8824 76.4293 81.7847 76.3317 81.6642 76.3317Z" fill="#4E4E4E"/>
</g>
<g style="mix-blend-mode:multiply" opacity="0.33">
<path d="M89.0038 76.3317H83.7673C83.6468 76.3317 83.5491 76.4293 83.5491 76.5498V79.1681C83.5491 79.2886 83.6468 79.3863 83.7673 79.3863H89.0038C89.1243 79.3863 89.222 79.2886 89.222 79.1681V76.5498C89.222 76.4293 89.1243 76.3317 89.0038 76.3317Z" fill="#4E4E4E"/>
</g>
<g style="mix-blend-mode:multiply" opacity="0.33">
<path d="M50.7755 72.0551H48.1573C48.0368 72.0551 47.9391 72.1528 47.9391 72.2733V74.8916C47.9391 75.0121 48.0368 75.1098 48.1573 75.1098H50.7755C50.896 75.1098 50.9937 75.0121 50.9937 74.8916V72.2733C50.9937 72.1528 50.896 72.0551 50.7755 72.0551Z" fill="#4E4E4E"/>
</g>
<g style="mix-blend-mode:multiply" opacity="0.33">
<path d="M45.997 72.0551H43.3787C43.2582 72.0551 43.1605 72.1528 43.1605 72.2733V74.8916C43.1605 75.0121 43.2582 75.1098 43.3787 75.1098H45.997C46.1175 75.1098 46.2152 75.0121 46.2152 74.8916V72.2733C46.2152 72.1528 46.1175 72.0551 45.997 72.0551Z" fill="#4E4E4E"/>
</g>
<g style="mix-blend-mode:multiply" opacity="0.33">
<path d="M55.554 72.0551H52.9357C52.8152 72.0551 52.7175 72.1528 52.7175 72.2733V74.8916C52.7175 75.0121 52.8152 75.1098 52.9357 75.1098H55.554C55.6745 75.1098 55.7722 75.0121 55.7722 74.8916V72.2733C55.7722 72.1528 55.6745 72.0551 55.554 72.0551Z" fill="#4E4E4E"/>
</g>
<g style="mix-blend-mode:multiply" opacity="0.33">
<path d="M60.3325 72.0551H57.7143C57.5938 72.0551 57.4961 72.1528 57.4961 72.2733V74.8916C57.4961 75.0121 57.5938 75.1098 57.7143 75.1098H60.3325C60.453 75.1098 60.5507 75.0121 60.5507 74.8916V72.2733C60.5507 72.1528 60.453 72.0551 60.3325 72.0551Z" fill="#4E4E4E"/>
</g>
<g style="mix-blend-mode:multiply" opacity="0.33">
<path d="M65.1111 72.0551H62.4928C62.3723 72.0551 62.2747 72.1528 62.2747 72.2733V74.8916C62.2747 75.0121 62.3723 75.1098 62.4928 75.1098H65.1111C65.2316 75.1098 65.3293 75.0121 65.3293 74.8916V72.2733C65.3293 72.1528 65.2316 72.0551 65.1111 72.0551Z" fill="#4E4E4E"/>
</g>
<g style="mix-blend-mode:multiply" opacity="0.33">
<path d="M69.8897 72.0551H67.2714C67.1509 72.0551 67.0532 72.1528 67.0532 72.2733V74.8916C67.0532 75.0121 67.1509 75.1098 67.2714 75.1098H69.8897C70.0102 75.1098 70.1079 75.0121 70.1079 74.8916V72.2733C70.1079 72.1528 70.0102 72.0551 69.8897 72.0551Z" fill="#4E4E4E"/>
</g>
<g style="mix-blend-mode:multiply" opacity="0.33">
<path d="M74.6682 72.0551H72.05C71.9295 72.0551 71.8318 72.1528 71.8318 72.2733V74.8916C71.8318 75.0121 71.9295 75.1098 72.05 75.1098H74.6682C74.7887 75.1098 74.8864 75.0121 74.8864 74.8916V72.2733C74.8864 72.1528 74.7887 72.0551 74.6682 72.0551Z" fill="#4E4E4E"/>
</g>
<g style="mix-blend-mode:multiply" opacity="0.33">
<path d="M79.4467 72.0551H76.8284C76.7079 72.0551 76.6102 72.1528 76.6102 72.2733V74.8916C76.6102 75.0121 76.7079 75.1098 76.8284 75.1098H79.4467C79.5672 75.1098 79.6649 75.0121 79.6649 74.8916V72.2733C79.6649 72.1528 79.5672 72.0551 79.4467 72.0551Z" fill="#4E4E4E"/>
</g>
<g style="mix-blend-mode:multiply" opacity="0.33">
<path d="M84.2252 72.0551H81.607C81.4865 72.0551 81.3888 72.1528 81.3888 72.2733V74.8916C81.3888 75.0121 81.4865 75.1098 81.607 75.1098H84.2252C84.3457 75.1098 84.4434 75.0121 84.4434 74.8916V72.2733C84.4434 72.1528 84.3457 72.0551 84.2252 72.0551Z" fill="#4E4E4E"/>
</g>
<g style="mix-blend-mode:multiply" opacity="0.33">
<path d="M89.0038 72.0551H86.3855C86.265 72.0551 86.1674 72.1528 86.1674 72.2733V74.8916C86.1674 75.0121 86.265 75.1098 86.3855 75.1098H89.0038C89.1243 75.1098 89.222 75.0121 89.222 74.8916V72.2733C89.222 72.1528 89.1243 72.0551 89.0038 72.0551Z" fill="#4E4E4E"/>
</g>
<g style="mix-blend-mode:multiply" opacity="0.33">
<path d="M47.6451 65.0941H84.7371V68.0278C84.7371 68.2593 84.6452 68.4813 84.4815 68.6449C84.3178 68.8086 84.0959 68.9006 83.8644 68.9006H48.5179C48.2864 68.9006 48.0644 68.8086 47.9008 68.6449C47.7371 68.4813 47.6451 68.2593 47.6451 68.0278V65.0941Z" fill="#4E4E4E"/>
</g>
<g style="mix-blend-mode:multiply" opacity="0.25">
<path d="M83.8644 68.0276H48.5179C48.2864 68.0276 48.0644 67.9357 47.9008 67.772C47.7371 67.6083 47.6451 67.3863 47.6451 67.1549V68.0276C47.6451 68.2591 47.7371 68.4811 47.9008 68.6447C48.0644 68.8084 48.2864 68.9004 48.5179 68.9004H83.8644C84.0959 68.9004 84.3178 68.8084 84.4815 68.6447C84.6452 68.4811 84.7371 68.2591 84.7371 68.0276V67.1549C84.7371 67.3863 84.6452 67.6083 84.4815 67.772C84.3178 67.9357 84.0959 68.0276 83.8644 68.0276Z" fill="#4E4E4E"/>
</g>
<g style="mix-blend-mode:multiply" opacity="0.33">
<path d="M47.6451 65.0941H84.7371V68.0278C84.7371 68.2593 84.6452 68.4813 84.4815 68.6449C84.3178 68.8086 84.0959 68.9006 83.8644 68.9006H48.5179C48.2864 68.9006 48.0644 68.8086 47.9008 68.6449C47.7371 68.4813 47.6451 68.2593 47.6451 68.0278V65.0941Z" fill="#4E4E4E"/>
<path d="M47.6451 65.0941H84.7371V68.0278C84.7371 68.2593 84.6452 68.4813 84.4815 68.6449C84.3178 68.8086 84.0959 68.9006 83.8644 68.9006H48.5179C48.2864 68.9006 48.0644 68.8086 47.9008 68.6449C47.7371 68.4813 47.6451 68.2593 47.6451 68.0278V65.0941Z" stroke="#46505C" stroke-width="0.436376" stroke-linecap="round" stroke-linejoin="round"/>
</g>
<g style="mix-blend-mode:multiply" opacity="0.33">
<path d="M73.828 91.1466H58.5548C58.3138 91.1466 58.1184 91.342 58.1184 91.583V101.838C58.1184 102.079 58.3138 102.274 58.5548 102.274H73.828C74.069 102.274 74.2643 102.079 74.2643 101.838V91.583C74.2643 91.342 74.069 91.1466 73.828 91.1466Z" fill="#4E4E4E"/>
</g>
<g style="mix-blend-mode:multiply" opacity="0.33">
<path d="M73.828 91.1466H58.5548C58.3138 91.1466 58.1184 91.342 58.1184 91.583V101.838C58.1184 102.079 58.3138 102.274 58.5548 102.274H73.828C74.069 102.274 74.2643 102.079 74.2643 101.838V91.583C74.2643 91.342 74.069 91.1466 73.828 91.1466Z" fill="#4E4E4E"/>
<path d="M73.828 91.1466H58.5548C58.3138 91.1466 58.1184 91.342 58.1184 91.583V101.838C58.1184 102.079 58.3138 102.274 58.5548 102.274H73.828C74.069 102.274 74.2643 102.079 74.2643 101.838V91.583C74.2643 91.342 74.069 91.1466 73.828 91.1466Z" stroke="#626C84" stroke-width="0.218188" stroke-linecap="round" stroke-linejoin="round"/>
</g>
</g>
<g style="mix-blend-mode:multiply" opacity="0.33">
<g style="mix-blend-mode:multiply" opacity="0.33">
<path d="M18.0817 88.871L19.7652 86.4647C19.7881 86.4319 19.8232 86.4096 19.8626 86.4026C19.902 86.3956 19.9426 86.4046 19.9754 86.4275L21.6937 87.6298C21.7265 87.6527 21.7488 87.6877 21.7558 87.7272C21.7628 87.7666 21.7538 87.8071 21.7309 87.8399L20.0473 90.2463C19.8815 90.4832 19.6284 90.6446 19.3436 90.6949C19.0588 90.7453 18.7657 90.6804 18.5287 90.5146L18.35 90.3896C18.1131 90.2238 17.9517 89.9707 17.9013 89.6859C17.851 89.4011 17.9159 89.108 18.0817 88.871V88.871Z" fill="#4E4E4E"/>
<path d="M18.0817 88.871L19.7652 86.4647C19.7881 86.4319 19.8232 86.4096 19.8626 86.4026C19.902 86.3956 19.9426 86.4046 19.9754 86.4275L21.6937 87.6298C21.7265 87.6527 21.7488 87.6877 21.7558 87.7272C21.7628 87.7666 21.7538 87.8071 21.7309 87.8399L20.0473 90.2463C19.8815 90.4832 19.6284 90.6446 19.3436 90.6949C19.0588 90.7453 18.7657 90.6804 18.5287 90.5146L18.35 90.3896C18.1131 90.2238 17.9517 89.9707 17.9013 89.6859C17.851 89.4011 17.9159 89.108 18.0817 88.871V88.871Z" stroke="#46505C" stroke-width="0.872356" stroke-linecap="round" stroke-linejoin="round"/>
</g>
<g style="mix-blend-mode:multiply" opacity="0.33">
<path d="M18.0817 88.871L19.7652 86.4647C19.7881 86.4319 19.8232 86.4096 19.8626 86.4026C19.902 86.3956 19.9426 86.4046 19.9754 86.4275L21.6937 87.6298C21.7265 87.6527 21.7488 87.6877 21.7558 87.7272C21.7628 87.7666 21.7538 87.8071 21.7309 87.8399L20.0473 90.2463C19.8815 90.4832 19.6284 90.6446 19.3436 90.6949C19.0588 90.7453 18.7657 90.6804 18.5287 90.5146L18.35 90.3896C18.1131 90.2238 17.9517 89.9707 17.9013 89.6859C17.851 89.4011 17.9159 89.108 18.0817 88.871V88.871Z" fill="#4E4E4E"/>
<path d="M18.0817 88.871L19.7652 86.4647C19.7881 86.4319 19.8232 86.4096 19.8626 86.4026C19.902 86.3956 19.9426 86.4046 19.9754 86.4275L21.6937 87.6298C21.7265 87.6527 21.7488 87.6877 21.7558 87.7272C21.7628 87.7666 21.7538 87.8071 21.7309 87.8399L20.0473 90.2463C19.8815 90.4832 19.6284 90.6446 19.3436 90.6949C19.0588 90.7453 18.7657 90.6804 18.5287 90.5146L18.35 90.3896C18.1131 90.2238 17.9517 89.9707 17.9013 89.6859C17.851 89.4011 17.9159 89.108 18.0817 88.871V88.871Z" stroke="#46505C" stroke-width="0.872356" stroke-linecap="round" stroke-linejoin="round"/>
</g>
<g style="mix-blend-mode:multiply" opacity="0.33">
<path d="M24.5463 88.9113C28.4718 88.9113 31.654 85.729 31.654 81.8036C31.654 77.8781 28.4718 74.6959 24.5463 74.6959C20.6208 74.6959 17.4386 77.8781 17.4386 81.8036C17.4386 85.729 20.6208 88.9113 24.5463 88.9113Z" fill="#4E4E4E"/>
<path d="M24.5463 88.9113C28.4718 88.9113 31.654 85.729 31.654 81.8036C31.654 77.8781 28.4718 74.6959 24.5463 74.6959C20.6208 74.6959 17.4386 77.8781 17.4386 81.8036C17.4386 85.729 20.6208 88.9113 24.5463 88.9113Z" stroke="#46505C" stroke-width="0.872753" stroke-linecap="round" stroke-linejoin="round"/>
</g>
<g style="mix-blend-mode:multiply" opacity="0.33">
<path d="M24.5463 88.9113C28.4718 88.9113 31.654 85.729 31.654 81.8036C31.654 77.8781 28.4718 74.6959 24.5463 74.6959C20.6208 74.6959 17.4386 77.8781 17.4386 81.8036C17.4386 85.729 20.6208 88.9113 24.5463 88.9113Z" fill="#4E4E4E"/>
<path d="M24.5463 88.9113C28.4718 88.9113 31.654 85.729 31.654 81.8036C31.654 77.8781 28.4718 74.6959 24.5463 74.6959C20.6208 74.6959 17.4386 77.8781 17.4386 81.8036C17.4386 85.729 20.6208 88.9113 24.5463 88.9113Z" stroke="#46505C" stroke-width="0.872753" stroke-linecap="round" stroke-linejoin="round"/>
</g>
<g style="mix-blend-mode:multiply" opacity="0.33">
<path d="M24.5463 87.3358C27.6017 87.3358 30.0785 84.8589 30.0785 81.8036C30.0785 78.7483 27.6017 76.2714 24.5463 76.2714C21.491 76.2714 19.0142 78.7483 19.0142 81.8036C19.0142 84.8589 21.491 87.3358 24.5463 87.3358Z" fill="#4E4E4E"/>
<path d="M24.5463 87.3358C27.6017 87.3358 30.0785 84.8589 30.0785 81.8036C30.0785 78.7483 27.6017 76.2714 24.5463 76.2714C21.491 76.2714 19.0142 78.7483 19.0142 81.8036C19.0142 84.8589 21.491 87.3358 24.5463 87.3358Z" stroke="#46505C" stroke-width="0.872753" stroke-linecap="round" stroke-linejoin="round"/>
</g>
<g style="mix-blend-mode:multiply" opacity="0.33">
<path d="M24.5463 87.3358C27.6017 87.3358 30.0785 84.8589 30.0785 81.8036C30.0785 78.7483 27.6017 76.2714 24.5463 76.2714C21.491 76.2714 19.0142 78.7483 19.0142 81.8036C19.0142 84.8589 21.491 87.3358 24.5463 87.3358Z" fill="#4E4E4E"/>
<path d="M24.5463 87.3358C27.6017 87.3358 30.0785 84.8589 30.0785 81.8036C30.0785 78.7483 27.6017 76.2714 24.5463 76.2714C21.491 76.2714 19.0142 78.7483 19.0142 81.8036C19.0142 84.8589 21.491 87.3358 24.5463 87.3358Z" stroke="#46505C" stroke-width="0.872753" stroke-linecap="round" stroke-linejoin="round"/>
</g>
<g style="mix-blend-mode:multiply" opacity="0.33">
<path d="M20.9298 80.6553C21.0038 80.4886 21.0839 80.3251 21.1655 80.1652C21.5364 79.4382 21.98 78.6846 22.688 78.2393C23.2891 77.8609 24.1298 77.7128 24.7813 78.0475C25.3464 78.3377 25.687 78.9344 26.2026 79.3058C26.5501 79.5186 26.9111 79.7085 27.2835 79.8742C27.6593 80.0434 27.9568 80.3492 28.1154 80.7297C28.29 81.2629 28.0022 81.832 27.9993 82.3931C27.9984 82.7028 28.0843 83.0064 28.2474 83.2696C28.3504 83.3927 28.4166 83.5424 28.4383 83.7014C28.4227 83.8032 28.3795 83.8989 28.3136 83.9781C28.2477 84.0573 28.1615 84.117 28.0641 84.1509C27.4912 84.4216 26.822 84.3239 26.1919 84.2558C25.5617 84.1877 24.864 84.1733 24.3659 84.5652C24.1619 84.7532 23.9731 84.9569 23.801 85.1744C23.7283 85.2834 23.6324 85.3749 23.5202 85.4425C23.408 85.5101 23.2822 85.552 23.1519 85.5653C23.0216 85.5786 22.8899 85.5629 22.7664 85.5193C22.6428 85.4758 22.5305 85.4054 22.4373 85.3134C21.9857 84.9351 21.5939 84.4907 21.2752 83.9953C20.9402 83.5763 20.7037 83.0873 20.5829 82.5646C20.4697 81.9155 20.6584 81.266 20.9298 80.6553Z" fill="#4E4E4E"/>
<path d="M20.9298 80.6553C21.0038 80.4886 21.0839 80.3251 21.1655 80.1652C21.5364 79.4382 21.98 78.6846 22.688 78.2393C23.2891 77.8609 24.1298 77.7128 24.7813 78.0475C25.3464 78.3377 25.687 78.9344 26.2026 79.3058C26.5501 79.5186 26.9111 79.7085 27.2835 79.8742C27.6593 80.0434 27.9568 80.3492 28.1154 80.7297C28.29 81.2629 28.0022 81.832 27.9993 82.3931C27.9984 82.7028 28.0843 83.0064 28.2474 83.2696C28.3504 83.3927 28.4166 83.5424 28.4383 83.7014C28.4227 83.8032 28.3795 83.8989 28.3136 83.9781C28.2477 84.0573 28.1615 84.117 28.0641 84.1509C27.4912 84.4216 26.822 84.3239 26.1919 84.2558C25.5617 84.1877 24.864 84.1733 24.3659 84.5652C24.1619 84.7532 23.9731 84.9569 23.801 85.1744C23.7283 85.2834 23.6324 85.3749 23.5202 85.4425C23.408 85.5101 23.2822 85.552 23.1519 85.5653C23.0216 85.5786 22.8899 85.5629 22.7664 85.5193C22.6428 85.4758 22.5305 85.4054 22.4373 85.3134C21.9857 84.9351 21.5939 84.4907 21.2752 83.9953C20.9402 83.5763 20.7037 83.0873 20.5829 82.5646C20.4697 81.9155 20.6584 81.266 20.9298 80.6553Z" stroke="#46505C" stroke-width="0.872753" stroke-linecap="round" stroke-linejoin="round"/>
</g>
<g style="mix-blend-mode:multiply" opacity="0.33">
<path d="M25.6652 85.9918C25.8549 85.9918 26.0086 85.838 26.0086 85.6483C26.0086 85.4587 25.8549 85.3049 25.6652 85.3049C25.4755 85.3049 25.3218 85.4587 25.3218 85.6483C25.3218 85.838 25.4755 85.9918 25.6652 85.9918Z" fill="#4E4E4E"/>
<path d="M25.6652 85.9918C25.8549 85.9918 26.0086 85.838 26.0086 85.6483C26.0086 85.4587 25.8549 85.3049 25.6652 85.3049C25.4755 85.3049 25.3218 85.4587 25.3218 85.6483C25.3218 85.838 25.4755 85.9918 25.6652 85.9918Z" stroke="#46505C" stroke-width="0.872753" stroke-linecap="round" stroke-linejoin="round"/>
</g>
<g style="mix-blend-mode:multiply" opacity="0.33">
<path d="M24.7713 86.0129C24.9026 86.0129 25.0091 85.9064 25.0091 85.7751C25.0091 85.6437 24.9026 85.5373 24.7713 85.5373C24.6399 85.5373 24.5334 85.6437 24.5334 85.7751C24.5334 85.9064 24.6399 86.0129 24.7713 86.0129Z" fill="#4E4E4E"/>
<path d="M24.7713 86.0129C24.9026 86.0129 25.0091 85.9064 25.0091 85.7751C25.0091 85.6437 24.9026 85.5373 24.7713 85.5373C24.6399 85.5373 24.5334 85.6437 24.5334 85.7751C24.5334 85.9064 24.6399 86.0129 24.7713 86.0129Z" stroke="#46505C" stroke-width="0.872753" stroke-linecap="round" stroke-linejoin="round"/>
</g>
<g style="mix-blend-mode:multiply" opacity="0.33">
<path d="M26.4766 85.5444C26.5956 85.5444 26.6921 85.4479 26.6921 85.3289C26.6921 85.2098 26.5956 85.1133 26.4766 85.1133C26.3575 85.1133 26.261 85.2098 26.261 85.3289C26.261 85.4479 26.3575 85.5444 26.4766 85.5444Z" fill="#4E4E4E"/>
<path d="M26.4766 85.5444C26.5956 85.5444 26.6921 85.4479 26.6921 85.3289C26.6921 85.2098 26.5956 85.1133 26.4766 85.1133C26.3575 85.1133 26.261 85.2098 26.261 85.3289C26.261 85.4479 26.3575 85.5444 26.4766 85.5444Z" stroke="#46505C" stroke-width="0.872753" stroke-linecap="round" stroke-linejoin="round"/>
</g>
<g style="mix-blend-mode:multiply" opacity="0.33">
<path d="M24.019 86.0186C24.1043 86.0186 24.1735 85.9494 24.1735 85.8641C24.1735 85.7788 24.1043 85.7096 24.019 85.7096C23.9337 85.7096 23.8645 85.7788 23.8645 85.8641C23.8645 85.9494 23.9337 86.0186 24.019 86.0186Z" fill="#4E4E4E"/>
<path d="M24.019 86.0186C24.1043 86.0186 24.1735 85.9494 24.1735 85.8641C24.1735 85.7788 24.1043 85.7096 24.019 85.7096C23.9337 85.7096 23.8645 85.7788 23.8645 85.8641C23.8645 85.9494 23.9337 86.0186 24.019 86.0186Z" stroke="#46505C" stroke-width="0.872753" stroke-linecap="round" stroke-linejoin="round"/>
</g>
<g style="mix-blend-mode:multiply" opacity="0.33">
<path d="M27.1576 85.1954C27.2097 85.1954 27.2519 85.1532 27.2519 85.1011C27.2519 85.0491 27.2097 85.0069 27.1576 85.0069C27.1056 85.0069 27.0634 85.0491 27.0634 85.1011C27.0634 85.1532 27.1056 85.1954 27.1576 85.1954Z" fill="#4E4E4E"/>
<path d="M27.1576 85.1954C27.2097 85.1954 27.2519 85.1532 27.2519 85.1011C27.2519 85.0491 27.2097 85.0069 27.1576 85.0069C27.1056 85.0069 27.0634 85.0491 27.0634 85.1011C27.0634 85.1532 27.1056 85.1954 27.1576 85.1954Z" stroke="#46505C" stroke-width="0.872753" stroke-linecap="round" stroke-linejoin="round"/>
</g>
<g style="mix-blend-mode:multiply" opacity="0.33">
<path d="M20.2535 80.7177C20.3757 80.7177 20.4747 80.6187 20.4747 80.4965C20.4747 80.3743 20.3757 80.2752 20.2535 80.2752C20.1313 80.2752 20.0322 80.3743 20.0322 80.4965C20.0322 80.6187 20.1313 80.7177 20.2535 80.7177Z" fill="#4E4E4E"/>
<path d="M20.2535 80.7177C20.3757 80.7177 20.4747 80.6187 20.4747 80.4965C20.4747 80.3743 20.3757 80.2752 20.2535 80.2752C20.1313 80.2752 20.0322 80.3743 20.0322 80.4965C20.0322 80.6187 20.1313 80.7177 20.2535 80.7177Z" stroke="#46505C" stroke-width="0.872753" stroke-linecap="round" stroke-linejoin="round"/>
</g>
<g style="mix-blend-mode:multiply" opacity="0.33">
<path d="M26.2765 78.1304C26.3915 78.1304 26.4847 78.0372 26.4847 77.9223C26.4847 77.8073 26.3915 77.7141 26.2765 77.7141C26.1616 77.7141 26.0684 77.8073 26.0684 77.9223C26.0684 78.0372 26.1616 78.1304 26.2765 78.1304Z" fill="#4E4E4E"/>
<path d="M26.2765 78.1304C26.3915 78.1304 26.4847 78.0372 26.4847 77.9223C26.4847 77.8073 26.3915 77.7141 26.2765 77.7141C26.1616 77.7141 26.0684 77.8073 26.0684 77.9223C26.0684 78.0372 26.1616 78.1304 26.2765 78.1304Z" stroke="#46505C" stroke-width="0.872753" stroke-linecap="round" stroke-linejoin="round"/>
</g>
<g style="mix-blend-mode:multiply" opacity="0.33">
<path d="M27.6296 79.1363C27.7337 79.1363 27.8181 79.0519 27.8181 78.9478C27.8181 78.8437 27.7337 78.7593 27.6296 78.7593C27.5254 78.7593 27.441 78.8437 27.441 78.9478C27.441 79.0519 27.5254 79.1363 27.6296 79.1363Z" fill="#4E4E4E"/>
<path d="M27.6296 79.1363C27.7337 79.1363 27.8181 79.0519 27.8181 78.9478C27.8181 78.8437 27.7337 78.7593 27.6296 78.7593C27.5254 78.7593 27.441 78.8437 27.441 78.9478C27.441 79.0519 27.5254 79.1363 27.6296 79.1363Z" stroke="#46505C" stroke-width="0.872753" stroke-linecap="round" stroke-linejoin="round"/>
</g>
<g style="mix-blend-mode:multiply" opacity="0.33">
<path d="M27.7843 79.5643C27.8298 79.5643 27.8667 79.5274 27.8667 79.4819C27.8667 79.4363 27.8298 79.3994 27.7843 79.3994C27.7387 79.3994 27.7018 79.4363 27.7018 79.4819C27.7018 79.5274 27.7387 79.5643 27.7843 79.5643Z" fill="#4E4E4E"/>
<path d="M27.7843 79.5643C27.8298 79.5643 27.8667 79.5274 27.8667 79.4819C27.8667 79.4363 27.8298 79.3994 27.7843 79.3994C27.7387 79.3994 27.7018 79.4363 27.7018 79.4819C27.7018 79.5274 27.7387 79.5643 27.7843 79.5643Z" stroke="#46505C" stroke-width="0.872753" stroke-linecap="round" stroke-linejoin="round"/>
</g>
</g>
<path d="M16.5371 87.1183L18.2217 84.7114C18.2447 84.6786 18.2797 84.6563 18.3192 84.6493C18.3586 84.6424 18.3992 84.6513 18.432 84.6743L20.1509 85.8774C20.1837 85.9004 20.206 85.9354 20.213 85.9748C20.22 86.0143 20.211 86.0549 20.188 86.0877L18.5034 88.4946C18.3374 88.7316 18.0842 88.8931 17.7992 88.9434C17.5143 88.9936 17.2211 88.9287 16.984 88.7628L16.8053 88.6377C16.5682 88.4718 16.4068 88.2185 16.3565 87.9336C16.3062 87.6486 16.3712 87.3554 16.5371 87.1183V87.1183Z" fill="white" stroke="#E6F3FF" stroke-width="0.436376" stroke-miterlimit="10"/>
<path opacity="0.18" d="M18.4319 84.6747C18.3991 84.6518 18.3585 84.6429 18.3191 84.6499C18.2797 84.6569 18.2447 84.6792 18.2218 84.712L17.4631 85.7955C17.754 86.0727 18.0654 86.3276 18.3946 86.5579C18.7237 86.7881 19.0696 86.9934 19.4292 87.1721L20.1879 86.0881C20.1993 86.0719 20.2074 86.0536 20.2117 86.0343C20.216 86.0149 20.2164 85.9949 20.213 85.9754C20.2095 85.9558 20.2023 85.9372 20.1916 85.9205C20.1809 85.9038 20.167 85.8894 20.1508 85.878L18.4319 84.6747Z" fill="#4E4E4E" stroke="#46505C" stroke-width="0.872753" stroke-linecap="round" stroke-linejoin="round"/>
<path d="M16.5371 87.1183L18.2217 84.7114C18.2447 84.6786 18.2797 84.6563 18.3192 84.6493C18.3586 84.6424 18.3992 84.6513 18.432 84.6743L20.1509 85.8774C20.1837 85.9004 20.206 85.9354 20.213 85.9748C20.22 86.0143 20.211 86.0549 20.188 86.0877L18.5034 88.4946C18.3374 88.7316 18.0842 88.8931 17.7992 88.9434C17.5143 88.9936 17.2211 88.9287 16.984 88.7628L16.8053 88.6377C16.5682 88.4718 16.4068 88.2185 16.3565 87.9336C16.3062 87.6486 16.3712 87.3554 16.5371 87.1183V87.1183Z" stroke="#46505C" stroke-width="0.872753" stroke-linecap="round" stroke-linejoin="round"/>
<path d="M22.9706 87.1273C26.8961 87.1273 30.0783 83.9451 30.0783 80.0196C30.0783 76.0942 26.8961 72.9119 22.9706 72.9119C19.0451 72.9119 15.8629 76.0942 15.8629 80.0196C15.8629 83.9451 19.0451 87.1273 22.9706 87.1273Z" fill="white" stroke="#E6F3FF" stroke-width="0.436376" stroke-miterlimit="10"/>
<path d="M22.9706 87.1273C26.8961 87.1273 30.0783 83.9451 30.0783 80.0196C30.0783 76.0942 26.8961 72.9119 22.9706 72.9119C19.0451 72.9119 15.8629 76.0942 15.8629 80.0196C15.8629 83.9451 19.0451 87.1273 22.9706 87.1273Z" stroke="#46505C" stroke-width="0.872753" stroke-linecap="round" stroke-linejoin="round"/>
<path d="M22.9706 85.5519C26.026 85.5519 28.5028 83.075 28.5028 80.0197C28.5028 76.9644 26.026 74.4875 22.9706 74.4875C19.9153 74.4875 17.4385 76.9644 17.4385 80.0197C17.4385 83.075 19.9153 85.5519 22.9706 85.5519Z" fill="#A18276"/>
<path d="M22.9706 85.5519C26.026 85.5519 28.5028 83.075 28.5028 80.0197C28.5028 76.9644 26.026 74.4875 22.9706 74.4875C19.9153 74.4875 17.4385 76.9644 17.4385 80.0197C17.4385 83.075 19.9153 85.5519 22.9706 85.5519Z" stroke="#A18276" stroke-width="0.436376" stroke-linecap="round" stroke-linejoin="round"/>
<g style="mix-blend-mode:multiply" opacity="0.33">
<path d="M19.3541 78.8711C19.4281 78.7047 19.5081 78.541 19.5897 78.3811C19.9607 77.6543 20.4044 76.9007 21.1122 76.4551C21.7136 76.0768 22.554 75.9289 23.2055 76.2634C23.7707 76.5536 24.1112 77.1505 24.6268 77.5217C24.9744 77.7342 25.3356 77.9237 25.7079 78.0889C26.0836 78.2581 26.381 78.5637 26.5399 78.9438C26.7144 79.4773 26.4267 80.0463 26.4236 80.6073C26.4226 80.9169 26.5086 81.2206 26.6717 81.4837C26.7748 81.6068 26.841 81.7565 26.8628 81.9155C26.8472 82.0174 26.8041 82.1131 26.7382 82.1923C26.6722 82.2716 26.586 82.3313 26.4886 82.3652C25.9154 82.6358 25.2463 82.5382 24.6161 82.4699C23.986 82.4017 23.2885 82.3877 22.7901 82.7793C22.5862 82.9674 22.3974 83.1711 22.2252 83.3885C22.1525 83.4975 22.0567 83.589 21.9445 83.6566C21.8323 83.7242 21.7065 83.7661 21.5762 83.7794C21.4459 83.7927 21.3142 83.7771 21.1907 83.7336C21.0672 83.69 20.9548 83.6198 20.8615 83.5277C20.41 83.1493 20.0182 82.7049 19.6995 82.2094C19.3648 81.7907 19.1284 81.3022 19.0078 80.7799C18.8928 80.1314 19.0829 79.4819 19.3541 78.8711Z" fill="#987865"/>
</g>
<g style="mix-blend-mode:multiply" opacity="0.33">
<path d="M24.0895 84.2076C24.2792 84.2076 24.433 84.0538 24.433 83.8641C24.433 83.6745 24.2792 83.5207 24.0895 83.5207C23.8999 83.5207 23.7461 83.6745 23.7461 83.8641C23.7461 84.0538 23.8999 84.2076 24.0895 84.2076Z" fill="#845B5B"/>
</g>
<g style="mix-blend-mode:multiply" opacity="0.33">
<path d="M23.1956 84.2287C23.3269 84.2287 23.4334 84.1222 23.4334 83.9909C23.4334 83.8595 23.3269 83.7531 23.1956 83.7531C23.0642 83.7531 22.9578 83.8595 22.9578 83.9909C22.9578 84.1222 23.0642 84.2287 23.1956 84.2287Z" fill="#845B5B"/>
</g>
<g style="mix-blend-mode:multiply" opacity="0.33">
<path d="M24.9009 83.7605C25.0199 83.7605 25.1164 83.664 25.1164 83.5449C25.1164 83.4259 25.0199 83.3294 24.9009 83.3294C24.7818 83.3294 24.6853 83.4259 24.6853 83.5449C24.6853 83.664 24.7818 83.7605 24.9009 83.7605Z" fill="#845B5B"/>
</g>
<g style="mix-blend-mode:multiply" opacity="0.33">
<path d="M22.4433 84.2346C22.5286 84.2346 22.5978 84.1654 22.5978 84.0801C22.5978 83.9948 22.5286 83.9257 22.4433 83.9257C22.358 83.9257 22.2888 83.9948 22.2888 84.0801C22.2888 84.1654 22.358 84.2346 22.4433 84.2346Z" fill="#845B5B"/>
</g>
<g style="mix-blend-mode:multiply" opacity="0.33">
<path d="M25.5819 83.4114C25.634 83.4114 25.6762 83.3692 25.6762 83.3171C25.6762 83.2651 25.634 83.2229 25.5819 83.2229C25.5299 83.2229 25.4877 83.2651 25.4877 83.3171C25.4877 83.3692 25.5299 83.4114 25.5819 83.4114Z" fill="#845B5B"/>
</g>
<g style="mix-blend-mode:multiply" opacity="0.33">
<path d="M18.6778 78.9337C18.8 78.9337 18.899 78.8347 18.899 78.7125C18.899 78.5903 18.8 78.4912 18.6778 78.4912C18.5556 78.4912 18.4565 78.5903 18.4565 78.7125C18.4565 78.8347 18.5556 78.9337 18.6778 78.9337Z" fill="#845B5B"/>
</g>
<g style="mix-blend-mode:multiply" opacity="0.33">
<path d="M24.7008 76.3462C24.8158 76.3462 24.909 76.253 24.909 76.1381C24.909 76.0231 24.8158 75.9299 24.7008 75.9299C24.5859 75.9299 24.4927 76.0231 24.4927 76.1381C24.4927 76.253 24.5859 76.3462 24.7008 76.3462Z" fill="#845B5B"/>
</g>
<g style="mix-blend-mode:multiply" opacity="0.33">
<path d="M26.0539 77.3521C26.158 77.3521 26.2424 77.2677 26.2424 77.1636C26.2424 77.0595 26.158 76.9751 26.0539 76.9751C25.9498 76.9751 25.8654 77.0595 25.8654 77.1636C25.8654 77.2677 25.9498 77.3521 26.0539 77.3521Z" fill="#845B5B"/>
</g>
<g style="mix-blend-mode:multiply" opacity="0.33">
<path d="M26.2085 77.7802C26.254 77.7802 26.2909 77.7433 26.2909 77.6977C26.2909 77.6522 26.254 77.6152 26.2085 77.6152C26.1629 77.6152 26.126 77.6522 26.126 77.6977C26.126 77.7433 26.1629 77.7802 26.2085 77.7802Z" fill="#845B5B"/>
</g>
<path d="M23.4554 80.9129C23.6964 80.9129 23.8918 80.7176 23.8918 80.4766C23.8918 80.2356 23.6964 80.0402 23.4554 80.0402C23.2144 80.0402 23.019 80.2356 23.019 80.4766C23.019 80.7176 23.2144 80.9129 23.4554 80.9129Z" fill="#845B5B"/>
<path d="M22.0342 79.5643C22.4559 79.5643 22.7978 79.2224 22.7978 78.8006C22.7978 78.3789 22.4559 78.037 22.0342 78.037C21.6124 78.037 21.2705 78.3789 21.2705 78.8006C21.2705 79.2224 21.6124 79.5643 22.0342 79.5643Z" fill="#845B5B"/>
<path d="M89.7663 29.2163H39.1467C37.4596 29.2163 36.092 30.5839 36.092 32.2709V61.9445C36.092 63.6315 37.4596 64.9992 39.1467 64.9992H89.7663C91.4534 64.9992 92.821 63.6315 92.821 61.9445V32.2709C92.821 30.5839 91.4534 29.2163 89.7663 29.2163Z" stroke="black" stroke-width="0.218188" stroke-linecap="round" stroke-linejoin="round"/>
<path d="M89.7663 29.2163H39.1467C37.4596 29.2163 36.092 30.5839 36.092 32.2709V61.9445C36.092 63.6315 37.4596 64.9992 39.1467 64.9992H89.7663C91.4534 64.9992 92.821 63.6315 92.821 61.9445V32.2709C92.821 30.5839 91.4534 29.2163 89.7663 29.2163Z" fill="#626C84"/>
<path d="M89.7663 29.2163H39.1467C37.4596 29.2163 36.092 30.5839 36.092 32.2709V61.9445C36.092 63.6315 37.4596 64.9992 39.1467 64.9992H89.7663C91.4534 64.9992 92.821 63.6315 92.821 61.9445V32.2709C92.821 30.5839 91.4534 29.2163 89.7663 29.2163Z" fill="#626C84"/>
<path opacity="0.17" d="M89.7663 29.2163H39.1467C37.4596 29.2163 36.092 30.5839 36.092 32.2709V59.9843C36.092 61.6714 37.4596 63.039 39.1467 63.039H89.7663C91.4534 63.039 92.821 61.6714 92.821 59.9843V32.2709C92.821 30.5839 91.4534 29.2163 89.7663 29.2163Z" fill="white"/>
<path opacity="0.1" d="M39.1467 30.0882H89.7663C90.5765 30.0882 91.3534 30.41 91.9263 30.9828C92.4992 31.5557 92.821 32.3327 92.821 33.1428V61.9436V32.27C92.821 31.4599 92.4992 30.6829 91.9263 30.1101C91.3534 29.5372 90.5765 29.2154 89.7663 29.2154H39.1467C38.3365 29.2154 37.5596 29.5372 36.9867 30.1101C36.4139 30.6829 36.092 31.4599 36.092 32.27V33.1428C36.092 32.3327 36.4139 31.5557 36.9867 30.9828C37.5596 30.41 38.3365 30.0882 39.1467 30.0882V30.0882Z" fill="white"/>
<g opacity="0.1">
<path opacity="0.1" d="M53.3784 64.9992H56.8845L82.8823 29.2163H79.3762L53.3784 64.9992Z" fill="white"/>
<path opacity="0.1" d="M58.9071 64.9991H59.9858L85.9838 29.2163H84.9049L58.9071 64.9991Z" fill="white"/>
</g>
<path d="M89.7663 29.2163H39.1467C37.4596 29.2163 36.092 30.5839 36.092 32.2709V61.9445C36.092 63.6315 37.4596 64.9992 39.1467 64.9992H89.7663C91.4534 64.9992 92.821 63.6315 92.821 61.9445V32.2709C92.821 30.5839 91.4534 29.2163 89.7663 29.2163Z" stroke="#46505C" stroke-width="0.872753" stroke-linecap="round" stroke-linejoin="round"/>
<path d="M88.8936 60.7401V33.2484H40.0194V60.7401H88.8936Z" fill="#2E3C49"/>
<g opacity="0.06">
<path opacity="0.06" d="M56.6909 60.7401H60.197L80.1708 33.2484H76.6647L56.6909 60.7401Z" fill="white"/>
<path opacity="0.06" d="M62.2196 60.7401H63.2985L83.2724 33.2484H82.1936L62.2196 60.7401Z" fill="white"/>
</g>
<path d="M88.8936 60.7401V33.2484H40.0194V60.7401H88.8936Z" stroke="#2E3C49" stroke-width="0.218188" stroke-linecap="round" stroke-linejoin="round"/>
<path d="M89.7663 64.9992H39.1467C37.4596 64.9992 36.092 66.3668 36.092 68.0538V99.4729C36.092 101.16 37.4596 102.528 39.1467 102.528H89.7663C91.4534 102.528 92.821 101.16 92.821 99.4729V68.0538C92.821 66.3668 91.4534 64.9992 89.7663 64.9992Z" fill="#E6F3FF"/>
<path d="M91.9482 99.4729V68.0538C91.9482 66.8488 90.9714 65.8719 89.7664 65.8719H39.1467C37.9417 65.8719 36.9648 66.8488 36.9648 68.0538V99.4729C36.9648 100.678 37.9417 101.655 39.1467 101.655H89.7664C90.9714 101.655 91.9482 100.678 91.9482 99.4729Z" fill="white" stroke="#E6F3FF" stroke-width="0.436376" stroke-miterlimit="10"/>
<path d="M60.9543 100.821H67.9581C68.1896 100.821 68.4116 100.913 68.5753 101.077C68.7389 101.241 68.8309 101.463 68.8309 101.694V102.528H60.0815V101.694C60.0815 101.463 60.1735 101.241 60.3372 101.077C60.5008 100.913 60.7228 100.821 60.9543 100.821Z" fill="#E6F3FF"/>
<path d="M89.7663 64.9992H39.1467C37.4596 64.9992 36.092 66.3668 36.092 68.0538V99.4729C36.092 101.16 37.4596 102.528 39.1467 102.528H89.7663C91.4534 102.528 92.821 101.16 92.821 99.4729V68.0538C92.821 66.3668 91.4534 64.9992 89.7663 64.9992Z" stroke="#46505C" stroke-width="0.872753" stroke-linecap="round" stroke-linejoin="round"/>
<path d="M88.8936 67.927H40.0194C39.6579 67.927 39.3649 68.2201 39.3649 68.5816V87.3458C39.3649 87.7073 39.6579 88.0003 40.0194 88.0003H88.8936C89.2551 88.0003 89.5482 87.7073 89.5482 87.3458V68.5816C89.5482 68.2201 89.2551 67.927 88.8936 67.927Z" fill="#E6F3FF"/>
<path d="M48.9834 83.0911H46.3652C46.2447 83.0911 46.147 83.1888 46.147 83.3093V85.9275C46.147 86.0481 46.2447 86.1457 46.3652 86.1457H48.9834C49.1039 86.1457 49.2016 86.0481 49.2016 85.9275V83.3093C49.2016 83.1888 49.1039 83.0911 48.9834 83.0911Z" stroke="#626C84" stroke-width="0.218188" stroke-linecap="round" stroke-linejoin="round"/>
<path d="M44.2622 83.0911H41.644C41.5235 83.0911 41.4258 83.1888 41.4258 83.3093V85.9275C41.4258 86.0481 41.5235 86.1457 41.644 86.1457H44.2622C44.3827 86.1457 44.4804 86.0481 44.4804 85.9275V83.3093C44.4804 83.1888 44.3827 83.0911 44.2622 83.0911Z" stroke="#626C84" stroke-width="0.218188" stroke-linecap="round" stroke-linejoin="round"/>
<path d="M72.5899 83.0911H51.0866C50.9661 83.0911 50.8684 83.1888 50.8684 83.3093V85.9275C50.8684 86.0481 50.9661 86.1457 51.0866 86.1457H72.5899C72.7104 86.1457 72.8081 86.0481 72.8081 85.9275V83.3093C72.8081 83.1888 72.7104 83.0911 72.5899 83.0911Z" stroke="#626C84" stroke-width="0.218188" stroke-linecap="round" stroke-linejoin="round"/>
<path d="M77.3113 83.0911H74.693C74.5725 83.0911 74.4749 83.1888 74.4749 83.3093V85.9275C74.4749 86.0481 74.5725 86.1457 74.693 86.1457H77.3113C77.4318 86.1457 77.5295 86.0481 77.5295 85.9275V83.3093C77.5295 83.1888 77.4318 83.0911 77.3113 83.0911Z" stroke="#626C84" stroke-width="0.218188" stroke-linecap="round" stroke-linejoin="round"/>
<path d="M84.2143 84.8093H82.4688C82.3483 84.8093 82.2506 84.907 82.2506 85.0275V85.9275C82.2506 86.0481 82.3483 86.1457 82.4688 86.1457H84.2143C84.3348 86.1457 84.4325 86.0481 84.4325 85.9275V85.0275C84.4325 84.907 84.3348 84.8093 84.2143 84.8093Z" stroke="#626C84" stroke-width="0.218188" stroke-linecap="round" stroke-linejoin="round"/>
<path d="M84.2143 83.0911H82.4688C82.3483 83.0911 82.2506 83.1888 82.2506 83.3093V84.2093C82.2506 84.3298 82.3483 84.4275 82.4688 84.4275H84.2143C84.3348 84.4275 84.4325 84.3298 84.4325 84.2093V83.3093C84.4325 83.1888 84.3348 83.0911 84.2143 83.0911Z" stroke="#626C84" stroke-width="0.218188" stroke-linecap="round" stroke-linejoin="round"/>
<path d="M87.2689 84.8093H85.5234C85.4029 84.8093 85.3052 84.907 85.3052 85.0275V85.9275C85.3052 86.0481 85.4029 86.1457 85.5234 86.1457H87.2689C87.3894 86.1457 87.4871 86.0481 87.4871 85.9275V85.0275C87.4871 84.907 87.3894 84.8093 87.2689 84.8093Z" stroke="#626C84" stroke-width="0.218188" stroke-linecap="round" stroke-linejoin="round"/>
<path d="M81.1596 84.8093H79.4141C79.2936 84.8093 79.1959 84.907 79.1959 85.0275V85.9275C79.1959 86.0481 79.2936 86.1457 79.4141 86.1457H81.1596C81.2801 86.1457 81.3778 86.0481 81.3778 85.9275V85.0275C81.3778 84.907 81.2801 84.8093 81.1596 84.8093Z" stroke="#626C84" stroke-width="0.218188" stroke-linecap="round" stroke-linejoin="round"/>
<path d="M48.5472 78.745H41.644C41.5235 78.745 41.4258 78.8427 41.4258 78.9632V81.5815C41.4258 81.702 41.5235 81.7997 41.644 81.7997H48.5472C48.6677 81.7997 48.7654 81.702 48.7654 81.5815V78.9632C48.7654 78.8427 48.6677 78.745 48.5472 78.745Z" stroke="#626C84" stroke-width="0.218188" stroke-linecap="round" stroke-linejoin="round"/>
<path d="M53.3079 78.745H50.6896C50.5691 78.745 50.4714 78.8427 50.4714 78.9632V81.5815C50.4714 81.702 50.5691 81.7997 50.6896 81.7997H53.3079C53.4284 81.7997 53.5261 81.702 53.5261 81.5815V78.9632C53.5261 78.8427 53.4284 78.745 53.3079 78.745Z" stroke="#626C84" stroke-width="0.218188" stroke-linecap="round" stroke-linejoin="round"/>
<path d="M58.0291 78.745H55.4108C55.2903 78.745 55.1926 78.8427 55.1926 78.9632V81.5815C55.1926 81.702 55.2903 81.7997 55.4108 81.7997H58.0291C58.1496 81.7997 58.2473 81.702 58.2473 81.5815V78.9632C58.2473 78.8427 58.1496 78.745 58.0291 78.745Z" stroke="#626C84" stroke-width="0.218188" stroke-linecap="round" stroke-linejoin="round"/>
<path d="M62.7505 78.745H60.1323C60.0117 78.745 59.9141 78.8427 59.9141 78.9632V81.5815C59.9141 81.702 60.0117 81.7997 60.1323 81.7997H62.7505C62.871 81.7997 62.9687 81.702 62.9687 81.5815V78.9632C62.9687 78.8427 62.871 78.745 62.7505 78.745Z" stroke="#626C84" stroke-width="0.218188" stroke-linecap="round" stroke-linejoin="round"/>
<path d="M67.4716 78.745H64.8533C64.7328 78.745 64.6351 78.8427 64.6351 78.9632V81.5815C64.6351 81.702 64.7328 81.7997 64.8533 81.7997H67.4716C67.5921 81.7997 67.6898 81.702 67.6898 81.5815V78.9632C67.6898 78.8427 67.5921 78.745 67.4716 78.745Z" stroke="#626C84" stroke-width="0.218188" stroke-linecap="round" stroke-linejoin="round"/>
<path d="M72.193 78.745H69.5748C69.4543 78.745 69.3566 78.8427 69.3566 78.9632V81.5815C69.3566 81.702 69.4543 81.7997 69.5748 81.7997H72.193C72.3135 81.7997 72.4112 81.702 72.4112 81.5815V78.9632C72.4112 78.8427 72.3135 78.745 72.193 78.745Z" stroke="#626C84" stroke-width="0.218188" stroke-linecap="round" stroke-linejoin="round"/>
<path d="M76.9142 78.745H74.2959C74.1754 78.745 74.0778 78.8427 74.0778 78.9632V81.5815C74.0778 81.702 74.1754 81.7997 74.2959 81.7997H76.9142C77.0347 81.7997 77.1324 81.702 77.1324 81.5815V78.9632C77.1324 78.8427 77.0347 78.745 76.9142 78.745Z" stroke="#626C84" stroke-width="0.218188" stroke-linecap="round" stroke-linejoin="round"/>
<path d="M87.2689 78.745H79.4141C79.2936 78.745 79.1959 78.8427 79.1959 78.9632V81.5815C79.1959 81.702 79.2936 81.7997 79.4141 81.7997H87.2689C87.3894 81.7997 87.4871 81.702 87.4871 81.5815V78.9632C87.4871 78.8427 87.3894 78.745 87.2689 78.745Z" stroke="#626C84" stroke-width="0.218188" stroke-linecap="round" stroke-linejoin="round"/>
<path d="M51.6017 74.2765H48.9834C48.8629 74.2765 48.7653 74.3742 48.7653 74.4947V77.113C48.7653 77.2335 48.8629 77.3312 48.9834 77.3312H51.6017C51.7222 77.3312 51.8199 77.2335 51.8199 77.113V74.4947C51.8199 74.3742 51.7222 74.2765 51.6017 74.2765Z" stroke="#626C84" stroke-width="0.218188" stroke-linecap="round" stroke-linejoin="round"/>
<path d="M46.8805 74.2765H41.644C41.5235 74.2765 41.4258 74.3742 41.4258 74.4947V77.113C41.4258 77.2335 41.5235 77.3312 41.644 77.3312H46.8805C47.001 77.3312 47.0987 77.2335 47.0987 77.113V74.4947C47.0987 74.3742 47.001 74.2765 46.8805 74.2765Z" stroke="#626C84" stroke-width="0.218188" stroke-linecap="round" stroke-linejoin="round"/>
<path d="M56.323 74.2765H53.7048C53.5843 74.2765 53.4866 74.3742 53.4866 74.4947V77.113C53.4866 77.2335 53.5843 77.3312 53.7048 77.3312H56.323C56.4435 77.3312 56.5412 77.2335 56.5412 77.113V74.4947C56.5412 74.3742 56.4435 74.2765 56.323 74.2765Z" stroke="#626C84" stroke-width="0.218188" stroke-linecap="round" stroke-linejoin="round"/>
<path d="M61.0442 74.2765H58.426C58.3054 74.2765 58.2078 74.3742 58.2078 74.4947V77.113C58.2078 77.2335 58.3054 77.3312 58.426 77.3312H61.0442C61.1647 77.3312 61.2624 77.2335 61.2624 77.113V74.4947C61.2624 74.3742 61.1647 74.2765 61.0442 74.2765Z" stroke="#626C84" stroke-width="0.218188" stroke-linecap="round" stroke-linejoin="round"/>
<path d="M65.7656 74.2765H63.1474C63.0269 74.2765 62.9292 74.3742 62.9292 74.4947V77.113C62.9292 77.2335 63.0269 77.3312 63.1474 77.3312H65.7656C65.8861 77.3312 65.9838 77.2335 65.9838 77.113V74.4947C65.9838 74.3742 65.8861 74.2765 65.7656 74.2765Z" stroke="#626C84" stroke-width="0.218188" stroke-linecap="round" stroke-linejoin="round"/>
<path d="M70.487 74.2765H67.8687C67.7482 74.2765 67.6505 74.3742 67.6505 74.4947V77.113C67.6505 77.2335 67.7482 77.3312 67.8687 77.3312H70.487C70.6075 77.3312 70.7051 77.2335 70.7051 77.113V74.4947C70.7051 74.3742 70.6075 74.2765 70.487 74.2765Z" stroke="#626C84" stroke-width="0.218188" stroke-linecap="round" stroke-linejoin="round"/>
<path d="M75.2082 74.2765H72.5899C72.4694 74.2765 72.3717 74.3742 72.3717 74.4947V77.113C72.3717 77.2335 72.4694 77.3312 72.5899 77.3312H75.2082C75.3287 77.3312 75.4263 77.2335 75.4263 77.113V74.4947C75.4263 74.3742 75.3287 74.2765 75.2082 74.2765Z" stroke="#626C84" stroke-width="0.218188" stroke-linecap="round" stroke-linejoin="round"/>
<path d="M79.9295 74.2765H77.3112C77.1907 74.2765 77.093 74.3742 77.093 74.4947V77.113C77.093 77.2335 77.1907 77.3312 77.3112 77.3312H79.9295C80.05 77.3312 80.1477 77.2335 80.1477 77.113V74.4947C80.1477 74.3742 80.05 74.2765 79.9295 74.2765Z" stroke="#626C84" stroke-width="0.218188" stroke-linecap="round" stroke-linejoin="round"/>
<path d="M87.2689 74.2765H82.0324C81.9119 74.2765 81.8142 74.3742 81.8142 74.4947V77.113C81.8142 77.2335 81.9119 77.3312 82.0324 77.3312H87.2689C87.3894 77.3312 87.4871 77.2335 87.4871 77.113V74.4947C87.4871 74.3742 87.3894 74.2765 87.2689 74.2765Z" stroke="#626C84" stroke-width="0.218188" stroke-linecap="round" stroke-linejoin="round"/>
<path d="M49.0408 69.9998H46.4225C46.302 69.9998 46.2043 70.0975 46.2043 70.218V72.8363C46.2043 72.9568 46.302 73.0544 46.4225 73.0544H49.0408C49.1613 73.0544 49.259 72.9568 49.259 72.8363V70.218C49.259 70.0975 49.1613 69.9998 49.0408 69.9998Z" stroke="#626C84" stroke-width="0.218188" stroke-linecap="round" stroke-linejoin="round"/>
<path d="M44.2622 69.9998H41.644C41.5235 69.9998 41.4258 70.0975 41.4258 70.218V72.8363C41.4258 72.9568 41.5235 73.0544 41.644 73.0544H44.2622C44.3827 73.0544 44.4804 72.9568 44.4804 72.8363V70.218C44.4804 70.0975 44.3827 69.9998 44.2622 69.9998Z" stroke="#626C84" stroke-width="0.218188" stroke-linecap="round" stroke-linejoin="round"/>
<path d="M53.8194 69.9998H51.2011C51.0806 69.9998 50.9829 70.0975 50.9829 70.218V72.8363C50.9829 72.9568 51.0806 73.0544 51.2011 73.0544H53.8194C53.9399 73.0544 54.0375 72.9568 54.0375 72.8363V70.218C54.0375 70.0975 53.9399 69.9998 53.8194 69.9998Z" stroke="#626C84" stroke-width="0.218188" stroke-linecap="round" stroke-linejoin="round"/>
<path d="M58.5979 69.9998H55.9797C55.8592 69.9998 55.7615 70.0975 55.7615 70.218V72.8363C55.7615 72.9568 55.8592 73.0544 55.9797 73.0544H58.5979C58.7184 73.0544 58.8161 72.9568 58.8161 72.8363V70.218C58.8161 70.0975 58.7184 69.9998 58.5979 69.9998Z" stroke="#626C84" stroke-width="0.218188" stroke-linecap="round" stroke-linejoin="round"/>
<path d="M63.3765 69.9998H60.7582C60.6377 69.9998 60.54 70.0975 60.54 70.218V72.8363C60.54 72.9568 60.6377 73.0544 60.7582 73.0544H63.3765C63.497 73.0544 63.5947 72.9568 63.5947 72.8363V70.218C63.5947 70.0975 63.497 69.9998 63.3765 69.9998Z" stroke="#626C84" stroke-width="0.218188" stroke-linecap="round" stroke-linejoin="round"/>
<path d="M68.1548 69.9998H65.5365C65.416 69.9998 65.3184 70.0975 65.3184 70.218V72.8363C65.3184 72.9568 65.416 73.0544 65.5365 73.0544H68.1548C68.2753 73.0544 68.373 72.9568 68.373 72.8363V70.218C68.373 70.0975 68.2753 69.9998 68.1548 69.9998Z" stroke="#626C84" stroke-width="0.218188" stroke-linecap="round" stroke-linejoin="round"/>
<path d="M72.9334 69.9998H70.3151C70.1946 69.9998 70.0969 70.0975 70.0969 70.218V72.8363C70.0969 72.9568 70.1946 73.0544 70.3151 73.0544H72.9334C73.0539 73.0544 73.1516 72.9568 73.1516 72.8363V70.218C73.1516 70.0975 73.0539 69.9998 72.9334 69.9998Z" stroke="#626C84" stroke-width="0.218188" stroke-linecap="round" stroke-linejoin="round"/>
<path d="M77.7118 69.9998H75.0936C74.9731 69.9998 74.8754 70.0975 74.8754 70.218V72.8363C74.8754 72.9568 74.9731 73.0544 75.0936 73.0544H77.7118C77.8323 73.0544 77.93 72.9568 77.93 72.8363V70.218C77.93 70.0975 77.8323 69.9998 77.7118 69.9998Z" stroke="#626C84" stroke-width="0.218188" stroke-linecap="round" stroke-linejoin="round"/>
<path d="M82.4904 69.9998H79.8721C79.7516 69.9998 79.6539 70.0975 79.6539 70.218V72.8363C79.6539 72.9568 79.7516 73.0544 79.8721 73.0544H82.4904C82.6109 73.0544 82.7086 72.9568 82.7086 72.8363V70.218C82.7086 70.0975 82.6109 69.9998 82.4904 69.9998Z" stroke="#626C84" stroke-width="0.218188" stroke-linecap="round" stroke-linejoin="round"/>
<path d="M87.2689 69.9998H84.6507C84.5302 69.9998 84.4325 70.0975 84.4325 70.218V72.8363C84.4325 72.9568 84.5302 73.0544 84.6507 73.0544H87.2689C87.3894 73.0544 87.4871 72.9568 87.4871 72.8363V70.218C87.4871 70.0975 87.3894 69.9998 87.2689 69.9998Z" stroke="#626C84" stroke-width="0.218188" stroke-linecap="round" stroke-linejoin="round"/>
<path d="M48.9834 83.0911H46.3652C46.2447 83.0911 46.147 83.1888 46.147 83.3093V85.9275C46.147 86.0481 46.2447 86.1457 46.3652 86.1457H48.9834C49.1039 86.1457 49.2016 86.0481 49.2016 85.9275V83.3093C49.2016 83.1888 49.1039 83.0911 48.9834 83.0911Z" fill="#626C84"/>
<path d="M44.2622 83.0911H41.644C41.5235 83.0911 41.4258 83.1888 41.4258 83.3093V85.9275C41.4258 86.0481 41.5235 86.1457 41.644 86.1457H44.2622C44.3827 86.1457 44.4804 86.0481 44.4804 85.9275V83.3093C44.4804 83.1888 44.3827 83.0911 44.2622 83.0911Z" fill="#626C84"/>
<path d="M72.5899 83.0911H51.0866C50.9661 83.0911 50.8684 83.1888 50.8684 83.3093V85.9275C50.8684 86.0481 50.9661 86.1457 51.0866 86.1457H72.5899C72.7104 86.1457 72.8081 86.0481 72.8081 85.9275V83.3093C72.8081 83.1888 72.7104 83.0911 72.5899 83.0911Z" fill="#626C84"/>
<path d="M77.3113 83.0911H74.693C74.5725 83.0911 74.4749 83.1888 74.4749 83.3093V85.9275C74.4749 86.0481 74.5725 86.1457 74.693 86.1457H77.3113C77.4318 86.1457 77.5295 86.0481 77.5295 85.9275V83.3093C77.5295 83.1888 77.4318 83.0911 77.3113 83.0911Z" fill="#626C84"/>
<path d="M84.2143 84.8093H82.4688C82.3483 84.8093 82.2506 84.907 82.2506 85.0275V85.9275C82.2506 86.0481 82.3483 86.1457 82.4688 86.1457H84.2143C84.3348 86.1457 84.4325 86.0481 84.4325 85.9275V85.0275C84.4325 84.907 84.3348 84.8093 84.2143 84.8093Z" fill="#626C84"/>
<path d="M84.2143 83.0911H82.4688C82.3483 83.0911 82.2506 83.1888 82.2506 83.3093V84.2093C82.2506 84.3298 82.3483 84.4275 82.4688 84.4275H84.2143C84.3348 84.4275 84.4325 84.3298 84.4325 84.2093V83.3093C84.4325 83.1888 84.3348 83.0911 84.2143 83.0911Z" fill="#626C84"/>
<path d="M87.2689 84.8093H85.5234C85.4029 84.8093 85.3052 84.907 85.3052 85.0275V85.9275C85.3052 86.0481 85.4029 86.1457 85.5234 86.1457H87.2689C87.3894 86.1457 87.4871 86.0481 87.4871 85.9275V85.0275C87.4871 84.907 87.3894 84.8093 87.2689 84.8093Z" fill="#626C84"/>
<path d="M81.1596 84.8093H79.4141C79.2936 84.8093 79.1959 84.907 79.1959 85.0275V85.9275C79.1959 86.0481 79.2936 86.1457 79.4141 86.1457H81.1596C81.2801 86.1457 81.3778 86.0481 81.3778 85.9275V85.0275C81.3778 84.907 81.2801 84.8093 81.1596 84.8093Z" fill="#626C84"/>
<path d="M48.5472 78.745H41.644C41.5235 78.745 41.4258 78.8427 41.4258 78.9632V81.5815C41.4258 81.702 41.5235 81.7997 41.644 81.7997H48.5472C48.6677 81.7997 48.7654 81.702 48.7654 81.5815V78.9632C48.7654 78.8427 48.6677 78.745 48.5472 78.745Z" fill="#626C84"/>
<path d="M53.3079 78.745H50.6896C50.5691 78.745 50.4714 78.8427 50.4714 78.9632V81.5815C50.4714 81.702 50.5691 81.7997 50.6896 81.7997H53.3079C53.4284 81.7997 53.5261 81.702 53.5261 81.5815V78.9632C53.5261 78.8427 53.4284 78.745 53.3079 78.745Z" fill="#626C84"/>
<path d="M58.0291 78.745H55.4108C55.2903 78.745 55.1926 78.8427 55.1926 78.9632V81.5815C55.1926 81.702 55.2903 81.7997 55.4108 81.7997H58.0291C58.1496 81.7997 58.2473 81.702 58.2473 81.5815V78.9632C58.2473 78.8427 58.1496 78.745 58.0291 78.745Z" fill="#626C84"/>
<path d="M62.7505 78.745H60.1323C60.0117 78.745 59.9141 78.8427 59.9141 78.9632V81.5815C59.9141 81.702 60.0117 81.7997 60.1323 81.7997H62.7505C62.871 81.7997 62.9687 81.702 62.9687 81.5815V78.9632C62.9687 78.8427 62.871 78.745 62.7505 78.745Z" fill="#626C84"/>
<path d="M67.4716 78.745H64.8533C64.7328 78.745 64.6351 78.8427 64.6351 78.9632V81.5815C64.6351 81.702 64.7328 81.7997 64.8533 81.7997H67.4716C67.5921 81.7997 67.6898 81.702 67.6898 81.5815V78.9632C67.6898 78.8427 67.5921 78.745 67.4716 78.745Z" fill="#626C84"/>
<path d="M72.193 78.745H69.5748C69.4543 78.745 69.3566 78.8427 69.3566 78.9632V81.5815C69.3566 81.702 69.4543 81.7997 69.5748 81.7997H72.193C72.3135 81.7997 72.4112 81.702 72.4112 81.5815V78.9632C72.4112 78.8427 72.3135 78.745 72.193 78.745Z" fill="#626C84"/>
<path d="M76.9142 78.745H74.2959C74.1754 78.745 74.0778 78.8427 74.0778 78.9632V81.5815C74.0778 81.702 74.1754 81.7997 74.2959 81.7997H76.9142C77.0347 81.7997 77.1324 81.702 77.1324 81.5815V78.9632C77.1324 78.8427 77.0347 78.745 76.9142 78.745Z" fill="#626C84"/>
<path d="M87.2689 78.745H79.4141C79.2936 78.745 79.1959 78.8427 79.1959 78.9632V81.5815C79.1959 81.702 79.2936 81.7997 79.4141 81.7997H87.2689C87.3894 81.7997 87.4871 81.702 87.4871 81.5815V78.9632C87.4871 78.8427 87.3894 78.745 87.2689 78.745Z" fill="#626C84"/>
<path d="M51.6017 74.2765H48.9834C48.8629 74.2765 48.7653 74.3742 48.7653 74.4947V77.113C48.7653 77.2335 48.8629 77.3312 48.9834 77.3312H51.6017C51.7222 77.3312 51.8199 77.2335 51.8199 77.113V74.4947C51.8199 74.3742 51.7222 74.2765 51.6017 74.2765Z" fill="#626C84"/>
<path d="M46.8805 74.2765H41.644C41.5235 74.2765 41.4258 74.3742 41.4258 74.4947V77.113C41.4258 77.2335 41.5235 77.3312 41.644 77.3312H46.8805C47.001 77.3312 47.0987 77.2335 47.0987 77.113V74.4947C47.0987 74.3742 47.001 74.2765 46.8805 74.2765Z" fill="#626C84"/>
<path d="M56.323 74.2765H53.7048C53.5843 74.2765 53.4866 74.3742 53.4866 74.4947V77.113C53.4866 77.2335 53.5843 77.3312 53.7048 77.3312H56.323C56.4435 77.3312 56.5412 77.2335 56.5412 77.113V74.4947C56.5412 74.3742 56.4435 74.2765 56.323 74.2765Z" fill="#626C84"/>
<path d="M61.0442 74.2765H58.426C58.3054 74.2765 58.2078 74.3742 58.2078 74.4947V77.113C58.2078 77.2335 58.3054 77.3312 58.426 77.3312H61.0442C61.1647 77.3312 61.2624 77.2335 61.2624 77.113V74.4947C61.2624 74.3742 61.1647 74.2765 61.0442 74.2765Z" fill="#626C84"/>
<path d="M65.7656 74.2765H63.1474C63.0269 74.2765 62.9292 74.3742 62.9292 74.4947V77.113C62.9292 77.2335 63.0269 77.3312 63.1474 77.3312H65.7656C65.8861 77.3312 65.9838 77.2335 65.9838 77.113V74.4947C65.9838 74.3742 65.8861 74.2765 65.7656 74.2765Z" fill="#626C84"/>
<path d="M70.487 74.2765H67.8687C67.7482 74.2765 67.6505 74.3742 67.6505 74.4947V77.113C67.6505 77.2335 67.7482 77.3312 67.8687 77.3312H70.487C70.6075 77.3312 70.7051 77.2335 70.7051 77.113V74.4947C70.7051 74.3742 70.6075 74.2765 70.487 74.2765Z" fill="#626C84"/>
<path d="M75.2082 74.2765H72.5899C72.4694 74.2765 72.3717 74.3742 72.3717 74.4947V77.113C72.3717 77.2335 72.4694 77.3312 72.5899 77.3312H75.2082C75.3287 77.3312 75.4263 77.2335 75.4263 77.113V74.4947C75.4263 74.3742 75.3287 74.2765 75.2082 74.2765Z" fill="#626C84"/>
<path d="M79.9295 74.2765H77.3112C77.1907 74.2765 77.093 74.3742 77.093 74.4947V77.113C77.093 77.2335 77.1907 77.3312 77.3112 77.3312H79.9295C80.05 77.3312 80.1477 77.2335 80.1477 77.113V74.4947C80.1477 74.3742 80.05 74.2765 79.9295 74.2765Z" fill="#626C84"/>
<path d="M87.2689 74.2765H82.0324C81.9119 74.2765 81.8142 74.3742 81.8142 74.4947V77.113C81.8142 77.2335 81.9119 77.3312 82.0324 77.3312H87.2689C87.3894 77.3312 87.4871 77.2335 87.4871 77.113V74.4947C87.4871 74.3742 87.3894 74.2765 87.2689 74.2765Z" fill="#626C84"/>
<path d="M49.0408 69.9998H46.4225C46.302 69.9998 46.2043 70.0975 46.2043 70.218V72.8363C46.2043 72.9568 46.302 73.0544 46.4225 73.0544H49.0408C49.1613 73.0544 49.259 72.9568 49.259 72.8363V70.218C49.259 70.0975 49.1613 69.9998 49.0408 69.9998Z" fill="#626C84"/>
<path d="M44.2622 69.9998H41.644C41.5235 69.9998 41.4258 70.0975 41.4258 70.218V72.8363C41.4258 72.9568 41.5235 73.0544 41.644 73.0544H44.2622C44.3827 73.0544 44.4804 72.9568 44.4804 72.8363V70.218C44.4804 70.0975 44.3827 69.9998 44.2622 69.9998Z" fill="#626C84"/>
<path d="M53.8194 69.9998H51.2011C51.0806 69.9998 50.9829 70.0975 50.9829 70.218V72.8363C50.9829 72.9568 51.0806 73.0544 51.2011 73.0544H53.8194C53.9399 73.0544 54.0375 72.9568 54.0375 72.8363V70.218C54.0375 70.0975 53.9399 69.9998 53.8194 69.9998Z" fill="#626C84"/>
<path d="M58.5979 69.9998H55.9797C55.8592 69.9998 55.7615 70.0975 55.7615 70.218V72.8363C55.7615 72.9568 55.8592 73.0544 55.9797 73.0544H58.5979C58.7184 73.0544 58.8161 72.9568 58.8161 72.8363V70.218C58.8161 70.0975 58.7184 69.9998 58.5979 69.9998Z" fill="#626C84"/>
<path d="M63.3765 69.9998H60.7582C60.6377 69.9998 60.54 70.0975 60.54 70.218V72.8363C60.54 72.9568 60.6377 73.0544 60.7582 73.0544H63.3765C63.497 73.0544 63.5947 72.9568 63.5947 72.8363V70.218C63.5947 70.0975 63.497 69.9998 63.3765 69.9998Z" fill="#626C84"/>
<path d="M68.1548 69.9998H65.5365C65.416 69.9998 65.3184 70.0975 65.3184 70.218V72.8363C65.3184 72.9568 65.416 73.0544 65.5365 73.0544H68.1548C68.2753 73.0544 68.373 72.9568 68.373 72.8363V70.218C68.373 70.0975 68.2753 69.9998 68.1548 69.9998Z" fill="#626C84"/>
<path d="M72.9334 69.9998H70.3151C70.1946 69.9998 70.0969 70.0975 70.0969 70.218V72.8363C70.0969 72.9568 70.1946 73.0544 70.3151 73.0544H72.9334C73.0539 73.0544 73.1516 72.9568 73.1516 72.8363V70.218C73.1516 70.0975 73.0539 69.9998 72.9334 69.9998Z" fill="#626C84"/>
<path d="M77.7118 69.9998H75.0936C74.9731 69.9998 74.8754 70.0975 74.8754 70.218V72.8363C74.8754 72.9568 74.9731 73.0544 75.0936 73.0544H77.7118C77.8323 73.0544 77.93 72.9568 77.93 72.8363V70.218C77.93 70.0975 77.8323 69.9998 77.7118 69.9998Z" fill="#626C84"/>
<path d="M82.4904 69.9998H79.8721C79.7516 69.9998 79.6539 70.0975 79.6539 70.218V72.8363C79.6539 72.9568 79.7516 73.0544 79.8721 73.0544H82.4904C82.6109 73.0544 82.7086 72.9568 82.7086 72.8363V70.218C82.7086 70.0975 82.6109 69.9998 82.4904 69.9998Z" fill="#626C84"/>
<path d="M87.2689 69.9998H84.6507C84.5302 69.9998 84.4325 70.0975 84.4325 70.218V72.8363C84.4325 72.9568 84.5302 73.0544 84.6507 73.0544H87.2689C87.3894 73.0544 87.4871 72.9568 87.4871 72.8363V70.218C87.4871 70.0975 87.3894 69.9998 87.2689 69.9998Z" fill="#626C84"/>
<path d="M45.9105 63.0389H83.0025V65.9727C83.0025 66.2042 82.9106 66.4261 82.7469 66.5898C82.5832 66.7535 82.3612 66.8454 82.1298 66.8454H46.7833C46.5518 66.8454 46.3298 66.7535 46.1661 66.5898C46.0025 66.4261 45.9105 66.2042 45.9105 65.9727V63.0389Z" fill="#626C84"/>
<path opacity="0.12" d="M83.0025 63.0389H45.9105V63.4753H83.0025V63.0389Z" fill="white"/>
<g style="mix-blend-mode:multiply" opacity="0.25">
<path d="M82.1298 65.9725H46.7833C46.5518 65.9725 46.3298 65.8805 46.1661 65.7169C46.0025 65.5532 45.9105 65.3312 45.9105 65.0997V65.9725C45.9105 66.204 46.0025 66.4259 46.1661 66.5896C46.3298 66.7533 46.5518 66.8452 46.7833 66.8452H82.1298C82.3612 66.8452 82.5832 66.7533 82.7469 66.5896C82.9106 66.4259 83.0025 66.204 83.0025 65.9725V65.0997C83.0025 65.3312 82.9106 65.5532 82.7469 65.7169C82.5832 65.8805 82.3612 65.9725 82.1298 65.9725Z" fill="#626C84"/>
</g>
<path d="M45.9105 63.0389H83.0025V65.9727C83.0025 66.2042 82.9106 66.4261 82.7469 66.5898C82.5832 66.7535 82.3612 66.8454 82.1298 66.8454H46.7833C46.5518 66.8454 46.3298 66.7535 46.1661 66.5898C46.0025 66.4261 45.9105 66.2042 45.9105 65.9727V63.0389Z" stroke="#46505C" stroke-width="0.436376" stroke-linecap="round" stroke-linejoin="round"/>
<path d="M72.0931 89.0913H56.8199C56.5789 89.0913 56.3835 89.2867 56.3835 89.5277V99.7825C56.3835 100.024 56.5789 100.219 56.8199 100.219H72.0931C72.3341 100.219 72.5295 100.024 72.5295 99.7825V89.5277C72.5295 89.2867 72.3341 89.0913 72.0931 89.0913Z" fill="#E6F3FF"/>
<path d="M72.0931 89.0913H56.8199C56.5789 89.0913 56.3835 89.2867 56.3835 89.5277V99.7825C56.3835 100.024 56.5789 100.219 56.8199 100.219H72.0931C72.3341 100.219 72.5295 100.024 72.5295 99.7825V89.5277C72.5295 89.2867 72.3341 89.0913 72.0931 89.0913Z" stroke="#626C84" stroke-width="0.218188" stroke-linecap="round" stroke-linejoin="round"/>
<path opacity="0.52" d="M64.4564 32.085C64.818 32.085 65.111 31.792 65.111 31.4305C65.111 31.0689 64.818 30.7759 64.4564 30.7759C64.0949 30.7759 63.8019 31.0689 63.8019 31.4305C63.8019 31.792 64.0949 32.085 64.4564 32.085Z" fill="white"/>
<path d="M64.4564 32.085C64.818 32.085 65.111 31.792 65.111 31.4305C65.111 31.0689 64.818 30.7759 64.4564 30.7759C64.0949 30.7759 63.8019 31.0689 63.8019 31.4305C63.8019 31.792 64.0949 32.085 64.4564 32.085Z" stroke="#46505C" stroke-width="0.218188" stroke-linecap="round" stroke-linejoin="round"/>
<path d="M78.0626 36.0292H75.4444C75.3239 36.0292 75.2262 36.1269 75.2262 36.2474C75.2262 36.3679 75.3239 36.4656 75.4444 36.4656H78.0626C78.1831 36.4656 78.2808 36.3679 78.2808 36.2474C78.2808 36.1269 78.1831 36.0292 78.0626 36.0292Z" fill="white"/>
<path d="M83.7299 36.0292H81.1116C80.9911 36.0292 80.8934 36.1269 80.8934 36.2474C80.8934 36.3679 80.9911 36.4656 81.1116 36.4656H83.7299C83.8504 36.4656 83.9481 36.3679 83.9481 36.2474C83.9481 36.1269 83.8504 36.0292 83.7299 36.0292Z" fill="white"/>
<path d="M72.3957 36.0292H69.7774C69.6569 36.0292 69.5592 36.1269 69.5592 36.2474C69.5592 36.3679 69.6569 36.4656 69.7774 36.4656H72.3957C72.5162 36.4656 72.6138 36.3679 72.6138 36.2474C72.6138 36.1269 72.5162 36.0292 72.3957 36.0292Z" fill="white"/>
<path d="M44.2158 37.4164C44.7986 37.4164 45.2712 36.9439 45.2712 36.3611C45.2712 35.7782 44.7986 35.3057 44.2158 35.3057C43.6329 35.3057 43.1604 35.7782 43.1604 36.3611C43.1604 36.9439 43.6329 37.4164 44.2158 37.4164Z" fill="white"/>
<g opacity="0.72">
<path opacity="0.72" d="M75.4876 47.9165H53.3995V48.7118H75.4876V47.9165Z" fill="white"/>
<path opacity="0.72" d="M72.6944 45.2769H56.193V46.0838H72.6944V45.2769Z" fill="white"/>
</g>
<path d="M68.2541 54.0987H61.9679C61.3074 54.0987 60.772 54.6341 60.772 55.2946C60.772 55.9551 61.3074 56.4905 61.9679 56.4905H68.2541C68.9146 56.4905 69.45 55.9551 69.45 55.2946C69.45 54.6341 68.9146 54.0987 68.2541 54.0987Z" stroke="white" stroke-width="0.218188" stroke-miterlimit="10"/>
</g>
<defs>
<clipPath id="clip0">
<rect width="131" height="131" fill="white"/>
</clipPath>
</defs>
</svg>
